M48
; DRILL file {KiCad 9.0.4} date 2026-06-05T16:58:42+0100
; FORMAT={-:-/ absolute / metric / decimal}
; #@! TF.CreationDate,2026-06-05T16:58:42+01:00
; #@! TF.GenerationSoftware,Kicad,Pcbnew,9.0.4
; #@! TF.FileFunction,Plated,1,2,PTH
FMAT,2
METRIC
; #@! TA.AperFunction,Plated,PTH,ViaDrill
T1C0.300
; #@! TA.AperFunction,Plated,PTH,ViaDrill
T2C0.600
; #@! TA.AperFunction,Plated,PTH,ComponentDrill
T3C0.800
; #@! TA.AperFunction,Plated,PTH,ComponentDrill
T4C1.020
; #@! TA.AperFunction,Plated,PTH,ComponentDrill
T5C1.300
; #@! TA.AperFunction,Plated,PTH,ComponentDrill
T6C1.500
; #@! TA.AperFunction,Plated,PTH,ComponentDrill
T7C1.600
%
G90
G05
T1
X58.166Y-41.91
X60.706Y-46.736
T2
X65.024Y-46.736
X77.724Y-45.974
T3
X51.435Y-39.843
X51.435Y-43.343
X98.552Y-33.274
X98.552Y-36.774
T4
X37.465Y-56.61
X37.465Y-71.6
X37.465Y-91.09
X37.465Y-106.08
X99.695Y-56.545
X99.695Y-71.535
X99.695Y-91.025
X99.695Y-106.015
T5
X108.752Y-34.922
X113.752Y-34.922
T6
X84.582Y-34.29
X84.582Y-44.29
T7
X95.25Y-43.18
X110.49Y-43.18
M30
