%TF.GenerationSoftware,KiCad,Pcbnew,9.0.4*%
%TF.CreationDate,2026-06-05T16:58:32+01:00*%
%TF.ProjectId,GerbCam ONE,47657262-4361-46d2-904f-4e452e6b6963,rev?*%
%TF.SameCoordinates,Original*%
%TF.FileFunction,Copper,L1,Top*%
%TF.FilePolarity,Positive*%
%FSLAX46Y46*%
G04 Gerber Fmt 4.6, Leading zero omitted, Abs format (unit mm)*
G04 Created by KiCad (PCBNEW 9.0.4) date 2026-06-05 16:58:32*
%MOMM*%
%LPD*%
G01*
G04 APERTURE LIST*
G04 Aperture macros list*
%AMRoundRect*
0 Rectangle with rounded corners*
0 $1 Rounding radius*
0 $2 $3 $4 $5 $6 $7 $8 $9 X,Y pos of 4 corners*
0 Add a 4 corners polygon primitive as box body*
4,1,4,$2,$3,$4,$5,$6,$7,$8,$9,$2,$3,0*
0 Add four circle primitives for the rounded corners*
1,1,$1+$1,$2,$3*
1,1,$1+$1,$4,$5*
1,1,$1+$1,$6,$7*
1,1,$1+$1,$8,$9*
0 Add four rect primitives between the rounded corners*
20,1,$1+$1,$2,$3,$4,$5,0*
20,1,$1+$1,$4,$5,$6,$7,0*
20,1,$1+$1,$6,$7,$8,$9,0*
20,1,$1+$1,$8,$9,$2,$3,0*%
G04 Aperture macros list end*
%TA.AperFunction,ComponentPad*%
%ADD10RoundRect,0.250000X0.550000X-0.550000X0.550000X0.550000X-0.550000X0.550000X-0.550000X-0.550000X0*%
%TD*%
%TA.AperFunction,ComponentPad*%
%ADD11C,1.600000*%
%TD*%
%TA.AperFunction,ComponentPad*%
%ADD12R,2.000000X2.000000*%
%TD*%
%TA.AperFunction,ComponentPad*%
%ADD13C,2.000000*%
%TD*%
%TA.AperFunction,ComponentPad*%
%ADD14RoundRect,0.250000X-1.350000X-1.350000X1.350000X-1.350000X1.350000X1.350000X-1.350000X1.350000X0*%
%TD*%
%TA.AperFunction,ComponentPad*%
%ADD15C,3.200000*%
%TD*%
%TA.AperFunction,ComponentPad*%
%ADD16RoundRect,0.250000X1.050000X1.050000X-1.050000X1.050000X-1.050000X-1.050000X1.050000X-1.050000X0*%
%TD*%
%TA.AperFunction,ComponentPad*%
%ADD17C,2.600000*%
%TD*%
%TA.AperFunction,SMDPad,CuDef*%
%ADD18RoundRect,0.250000X-2.050000X-0.300000X2.050000X-0.300000X2.050000X0.300000X-2.050000X0.300000X0*%
%TD*%
%TA.AperFunction,SMDPad,CuDef*%
%ADD19RoundRect,0.250002X-4.449998X-5.149998X4.449998X-5.149998X4.449998X5.149998X-4.449998X5.149998X0*%
%TD*%
%TA.AperFunction,ComponentPad*%
%ADD20C,3.000000*%
%TD*%
%TA.AperFunction,ViaPad*%
%ADD21C,1.000000*%
%TD*%
%TA.AperFunction,ViaPad*%
%ADD22C,0.500000*%
%TD*%
%TA.AperFunction,ViaPad*%
%ADD23C,0.600000*%
%TD*%
%TA.AperFunction,Conductor*%
%ADD24C,1.600000*%
%TD*%
%TA.AperFunction,Conductor*%
%ADD25C,1.000000*%
%TD*%
%TA.AperFunction,Conductor*%
%ADD26C,0.500000*%
%TD*%
G04 APERTURE END LIST*
D10*
%TO.P,C2,1*%
%TO.N,+5V*%
X98552000Y-36774000D03*
D11*
%TO.P,C2,2*%
%TO.N,GND*%
X98552000Y-33274000D03*
%TD*%
D12*
%TO.P,BT3,1,+*%
%TO.N,Net-(BT2--)*%
X99695000Y-56545000D03*
D13*
%TO.P,BT3,2,-*%
%TO.N,Net-(BT3--)*%
X99695000Y-71535000D03*
%TD*%
D10*
%TO.P,C1,1*%
%TO.N,+12V*%
X51435000Y-43342651D03*
D11*
%TO.P,C1,2*%
%TO.N,GND*%
X51435000Y-39842651D03*
%TD*%
D12*
%TO.P,BT4,1,+*%
%TO.N,Net-(BT3--)*%
X99695000Y-91025000D03*
D13*
%TO.P,BT4,2,-*%
%TO.N,GND*%
X99695000Y-106015000D03*
%TD*%
D12*
%TO.P,BT2,1,+*%
%TO.N,Net-(BT1--)*%
X37465000Y-91090000D03*
D13*
%TO.P,BT2,2,-*%
%TO.N,Net-(BT2--)*%
X37465000Y-106080000D03*
%TD*%
D14*
%TO.P,D1,1,K*%
%TO.N,Net-(D1-K)*%
X95250000Y-43180000D03*
D15*
%TO.P,D1,2,A*%
%TO.N,GND*%
X110490000Y-43180000D03*
%TD*%
D12*
%TO.P,BT1,1,+*%
%TO.N,+12V*%
X37465000Y-56610000D03*
D13*
%TO.P,BT1,2,-*%
%TO.N,Net-(BT1--)*%
X37465000Y-71600000D03*
%TD*%
D16*
%TO.P,J2,1*%
%TO.N,+5V*%
X113752000Y-34922500D03*
D17*
%TO.P,J2,2*%
%TO.N,GND*%
X108752000Y-34922500D03*
%TD*%
D18*
%TO.P,U1,1,VIN*%
%TO.N,+12V*%
X61565000Y-37240000D03*
%TO.P,U1,2,OUT*%
%TO.N,Net-(D1-K)*%
X61565001Y-38940000D03*
%TO.P,U1,3,GND*%
%TO.N,GND*%
X61565000Y-40640000D03*
D19*
X70715000Y-40640000D03*
D18*
%TO.P,U1,4,FB*%
%TO.N,+5V*%
X61565001Y-42340000D03*
%TO.P,U1,5,~{ON}/OFF*%
%TO.N,GND*%
X61565000Y-44040000D03*
%TD*%
D20*
%TO.P,L1,1,1*%
%TO.N,Net-(D1-K)*%
X84582000Y-44290000D03*
%TO.P,L1,2,2*%
%TO.N,+5V*%
X84582000Y-34290000D03*
%TD*%
D21*
%TO.N,GND*%
X77724000Y-45974000D03*
D22*
X60706000Y-46736000D03*
D21*
X65024000Y-46736000D03*
D23*
%TO.N,+5V*%
X58166000Y-41910000D03*
%TD*%
D24*
%TO.N,Net-(BT1--)*%
X37465000Y-71600000D02*
X37465000Y-91090000D01*
%TO.N,Net-(BT2--)*%
X37465000Y-106080000D02*
X87000000Y-56545000D01*
X87000000Y-56545000D02*
X99695000Y-56545000D01*
%TO.N,Net-(BT3--)*%
X99695000Y-71535000D02*
X99695000Y-91025000D01*
D25*
%TO.N,GND*%
X65024000Y-41799000D02*
X65024000Y-46736000D01*
X63865000Y-40640000D02*
X65024000Y-41799000D01*
X72390000Y-40640000D02*
X77724000Y-45974000D01*
X61565000Y-44040000D02*
X61565000Y-45877000D01*
X61565000Y-40640000D02*
X63865000Y-40640000D01*
X70715000Y-40640000D02*
X72390000Y-40640000D01*
X61565000Y-45877000D02*
X60706000Y-46736000D01*
D26*
%TO.N,+5V*%
X61565001Y-42340000D02*
X58596000Y-42340000D01*
X98552000Y-36774000D02*
X111900500Y-36774000D01*
X96068000Y-34290000D02*
X98552000Y-36774000D01*
X111900500Y-36774000D02*
X113752000Y-34922500D01*
X58596000Y-42340000D02*
X58166000Y-41910000D01*
X84582000Y-34290000D02*
X96068000Y-34290000D01*
%TO.N,Net-(D1-K)*%
X84582000Y-43688000D02*
X84582000Y-44290000D01*
X64316000Y-36440708D02*
X65967708Y-34789000D01*
X64316000Y-38489001D02*
X64316000Y-36440708D01*
X85692000Y-43180000D02*
X84582000Y-44290000D01*
X61565001Y-38940000D02*
X63865001Y-38940000D01*
X95250000Y-43180000D02*
X85692000Y-43180000D01*
X63865001Y-38940000D02*
X64316000Y-38489001D01*
X95170000Y-43100000D02*
X95250000Y-43180000D01*
X65967708Y-34789000D02*
X75683000Y-34789000D01*
X75683000Y-34789000D02*
X84582000Y-43688000D01*
D24*
%TO.N,+12V*%
X37465000Y-56610000D02*
X45405000Y-56610000D01*
X57537651Y-37240000D02*
X61565000Y-37240000D01*
X45405000Y-56610000D02*
X51435000Y-50580000D01*
X51435000Y-50580000D02*
X51435000Y-43342651D01*
X51435000Y-43342651D02*
X57537651Y-37240000D01*
%TD*%
M02*
