ISO-10303-21;
HEADER;
/* Generated by software containing ST-Developer
 * from STEP Tools, Inc. (www.steptools.com) 
 */
/* OPTION: using custom renumber hook */

FILE_DESCRIPTION(
/* description */ ('STEP AP242 Edition 2',
'CAx-IF Rec.Pracs.---Representation and Presentation of Product Manufa
cturing Information (PMI)---4.0---2014-10-13',
'CAx-IF Rec.Pracs.---3D Tessellated Geometry---0.4---2014-09-14','2;1',
'CAx-IF Rec.Pracs.---User Defined Attributes---1.5---2016-08-15'),
/* implementation_level */ '2;1');

FILE_NAME(
/* name */ 'Bottom',
/* time_stamp */ '2026-06-28T00:12:02Z',
/* author */ (''),
/* organization */ (''),
/* preprocessor_version */ 'ST-DEVELOPER v20',
/* originating_system */ 'ONSHAPE BY PTC INC, 1.217',
/* authorisation */ '  ');

FILE_SCHEMA (('AP242_MANAGED_MODEL_BASED_3D_ENGINEERING_MIM_LF { 1 0 10303 442 3 1 4 }'));
ENDSEC;

DATA;
#10=SHAPE_REPRESENTATION_RELATIONSHIP('','',#889,#11);
#11=ADVANCED_BREP_SHAPE_REPRESENTATION('',(#887),#1541);
#12=CONICAL_SURFACE('',#943,0.0029,0.785398163397448);
#13=CONICAL_SURFACE('',#946,0.0029,0.785398163397448);
#14=CONICAL_SURFACE('',#1004,0.0029,0.785398163397448);
#15=CONICAL_SURFACE('',#1005,0.0029,0.785398163397448);
#16=CONICAL_SURFACE('',#1008,0.0029,0.785398163397448);
#17=CONICAL_SURFACE('',#1009,0.0029,0.785398163397448);
#18=CYLINDRICAL_SURFACE('',#921,0.001675);
#19=CYLINDRICAL_SURFACE('',#923,0.001675);
#20=CYLINDRICAL_SURFACE('',#925,0.001675);
#21=CYLINDRICAL_SURFACE('',#927,0.001425);
#22=CYLINDRICAL_SURFACE('',#929,0.001425);
#23=CYLINDRICAL_SURFACE('',#931,0.001425);
#24=CYLINDRICAL_SURFACE('',#937,0.001425);
#25=CYLINDRICAL_SURFACE('',#939,0.001675);
#26=CYLINDRICAL_SURFACE('',#941,0.0015);
#27=CYLINDRICAL_SURFACE('',#944,0.0015);
#28=CYLINDRICAL_SURFACE('',#947,0.003);
#29=CYLINDRICAL_SURFACE('',#948,0.003);
#30=CYLINDRICAL_SURFACE('',#949,0.003);
#31=CYLINDRICAL_SURFACE('',#950,0.003);
#32=CYLINDRICAL_SURFACE('',#957,0.001);
#33=CYLINDRICAL_SURFACE('',#962,0.001);
#34=CYLINDRICAL_SURFACE('',#967,0.001);
#35=CYLINDRICAL_SURFACE('',#972,0.001);
#36=CYLINDRICAL_SURFACE('',#979,0.0011);
#37=CYLINDRICAL_SURFACE('',#984,0.0011);
#38=CYLINDRICAL_SURFACE('',#987,0.0011);
#39=CYLINDRICAL_SURFACE('',#990,0.0011);
#40=CYLINDRICAL_SURFACE('',#992,0.0015);
#41=CYLINDRICAL_SURFACE('',#995,0.0015);
#42=CYLINDRICAL_SURFACE('',#997,0.0015);
#43=CYLINDRICAL_SURFACE('',#1000,0.0015);
#44=LINE('',#1302,#88);
#45=LINE('',#1306,#89);
#46=LINE('',#1310,#90);
#47=LINE('',#1314,#91);
#48=LINE('',#1319,#92);
#49=LINE('',#1324,#93);
#50=LINE('',#1328,#94);
#51=LINE('',#1332,#95);
#52=LINE('',#1336,#96);
#53=LINE('',#1341,#97);
#54=LINE('',#1344,#98);
#55=LINE('',#1349,#99);
#56=LINE('',#1353,#100);
#57=LINE('',#1357,#101);
#58=LINE('',#1380,#102);
#59=LINE('',#1385,#103);
#60=LINE('',#1407,#104);
#61=LINE('',#1408,#105);
#62=LINE('',#1410,#106);
#63=LINE('',#1411,#107);
#64=LINE('',#1413,#108);
#65=LINE('',#1414,#109);
#66=LINE('',#1416,#110);
#67=LINE('',#1417,#111);
#68=LINE('',#1493,#112);
#69=LINE('',#1495,#113);
#70=LINE('',#1497,#114);
#71=LINE('',#1499,#115);
#72=LINE('',#1503,#116);
#73=LINE('',#1505,#117);
#74=LINE('',#1509,#118);
#75=LINE('',#1513,#119);
#76=LINE('',#1515,#120);
#77=LINE('',#1517,#121);
#78=LINE('',#1519,#122);
#79=LINE('',#1523,#123);
#80=LINE('',#1525,#124);
#81=LINE('',#1526,#125);
#82=LINE('',#1528,#126);
#83=LINE('',#1530,#127);
#84=LINE('',#1533,#128);
#85=LINE('',#1534,#129);
#86=LINE('',#1536,#130);
#87=LINE('',#1538,#131);
#88=VECTOR('',#1017,1.);
#89=VECTOR('',#1020,1.);
#90=VECTOR('',#1023,1.);
#91=VECTOR('',#1026,1.);
#92=VECTOR('',#1031,1.);
#93=VECTOR('',#1034,1.);
#94=VECTOR('',#1037,1.);
#95=VECTOR('',#1040,1.);
#96=VECTOR('',#1045,1.);
#97=VECTOR('',#1048,1.);
#98=VECTOR('',#1051,1.);
#99=VECTOR('',#1054,1.);
#100=VECTOR('',#1057,1.);
#101=VECTOR('',#1060,1.);
#102=VECTOR('',#1083,1.);
#103=VECTOR('',#1086,1.);
#104=VECTOR('',#1115,1.);
#105=VECTOR('',#1116,1.);
#106=VECTOR('',#1119,1.);
#107=VECTOR('',#1120,1.);
#108=VECTOR('',#1123,1.);
#109=VECTOR('',#1124,1.);
#110=VECTOR('',#1127,1.);
#111=VECTOR('',#1128,1.);
#112=VECTOR('',#1239,1.);
#113=VECTOR('',#1240,1.);
#114=VECTOR('',#1241,1.);
#115=VECTOR('',#1244,1.);
#116=VECTOR('',#1249,1.);
#117=VECTOR('',#1250,1.);
#118=VECTOR('',#1257,1.);
#119=VECTOR('',#1260,1.);
#120=VECTOR('',#1263,1.);
#121=VECTOR('',#1264,1.);
#122=VECTOR('',#1267,1.);
#123=VECTOR('',#1272,1.);
#124=VECTOR('',#1275,1.);
#125=VECTOR('',#1276,1.);
#126=VECTOR('',#1279,1.);
#127=VECTOR('',#1282,1.);
#128=VECTOR('',#1287,1.);
#129=VECTOR('',#1288,1.);
#130=VECTOR('',#1291,1.);
#131=VECTOR('',#1294,1.);
#132=ORIENTED_EDGE('',*,*,#336,.T.);
#133=ORIENTED_EDGE('',*,*,#337,.T.);
#134=ORIENTED_EDGE('',*,*,#338,.T.);
#135=ORIENTED_EDGE('',*,*,#339,.T.);
#136=ORIENTED_EDGE('',*,*,#340,.T.);
#137=ORIENTED_EDGE('',*,*,#341,.T.);
#138=ORIENTED_EDGE('',*,*,#342,.T.);
#139=ORIENTED_EDGE('',*,*,#343,.T.);
#140=ORIENTED_EDGE('',*,*,#344,.T.);
#141=ORIENTED_EDGE('',*,*,#345,.T.);
#142=ORIENTED_EDGE('',*,*,#346,.F.);
#143=ORIENTED_EDGE('',*,*,#347,.T.);
#144=ORIENTED_EDGE('',*,*,#348,.T.);
#145=ORIENTED_EDGE('',*,*,#349,.T.);
#146=ORIENTED_EDGE('',*,*,#350,.T.);
#147=ORIENTED_EDGE('',*,*,#351,.T.);
#148=ORIENTED_EDGE('',*,*,#352,.F.);
#149=ORIENTED_EDGE('',*,*,#353,.T.);
#150=ORIENTED_EDGE('',*,*,#354,.F.);
#151=ORIENTED_EDGE('',*,*,#355,.T.);
#152=ORIENTED_EDGE('',*,*,#356,.T.);
#153=ORIENTED_EDGE('',*,*,#357,.T.);
#154=ORIENTED_EDGE('',*,*,#358,.F.);
#155=ORIENTED_EDGE('',*,*,#359,.T.);
#156=ORIENTED_EDGE('',*,*,#360,.T.);
#157=ORIENTED_EDGE('',*,*,#361,.T.);
#158=ORIENTED_EDGE('',*,*,#362,.T.);
#159=ORIENTED_EDGE('',*,*,#363,.T.);
#160=ORIENTED_EDGE('',*,*,#364,.F.);
#161=ORIENTED_EDGE('',*,*,#365,.T.);
#162=ORIENTED_EDGE('',*,*,#366,.F.);
#163=ORIENTED_EDGE('',*,*,#367,.F.);
#164=ORIENTED_EDGE('',*,*,#368,.F.);
#165=ORIENTED_EDGE('',*,*,#369,.F.);
#166=ORIENTED_EDGE('',*,*,#370,.F.);
#167=ORIENTED_EDGE('',*,*,#371,.F.);
#168=ORIENTED_EDGE('',*,*,#372,.F.);
#169=ORIENTED_EDGE('',*,*,#373,.F.);
#170=ORIENTED_EDGE('',*,*,#374,.T.);
#171=ORIENTED_EDGE('',*,*,#375,.T.);
#172=ORIENTED_EDGE('',*,*,#376,.F.);
#173=ORIENTED_EDGE('',*,*,#377,.T.);
#174=ORIENTED_EDGE('',*,*,#378,.T.);
#175=ORIENTED_EDGE('',*,*,#379,.T.);
#176=ORIENTED_EDGE('',*,*,#371,.T.);
#177=ORIENTED_EDGE('',*,*,#380,.F.);
#178=ORIENTED_EDGE('',*,*,#373,.T.);
#179=ORIENTED_EDGE('',*,*,#381,.F.);
#180=ORIENTED_EDGE('',*,*,#372,.T.);
#181=ORIENTED_EDGE('',*,*,#382,.F.);
#182=ORIENTED_EDGE('',*,*,#367,.T.);
#183=ORIENTED_EDGE('',*,*,#383,.F.);
#184=ORIENTED_EDGE('',*,*,#368,.T.);
#185=ORIENTED_EDGE('',*,*,#384,.F.);
#186=ORIENTED_EDGE('',*,*,#369,.T.);
#187=ORIENTED_EDGE('',*,*,#385,.F.);
#188=ORIENTED_EDGE('',*,*,#348,.F.);
#189=ORIENTED_EDGE('',*,*,#386,.T.);
#190=ORIENTED_EDGE('',*,*,#358,.T.);
#191=ORIENTED_EDGE('',*,*,#387,.T.);
#192=ORIENTED_EDGE('',*,*,#360,.F.);
#193=ORIENTED_EDGE('',*,*,#388,.T.);
#194=ORIENTED_EDGE('',*,*,#346,.T.);
#195=ORIENTED_EDGE('',*,*,#389,.T.);
#196=ORIENTED_EDGE('',*,*,#352,.T.);
#197=ORIENTED_EDGE('',*,*,#390,.T.);
#198=ORIENTED_EDGE('',*,*,#362,.F.);
#199=ORIENTED_EDGE('',*,*,#391,.T.);
#200=ORIENTED_EDGE('',*,*,#350,.F.);
#201=ORIENTED_EDGE('',*,*,#392,.T.);
#202=ORIENTED_EDGE('',*,*,#364,.T.);
#203=ORIENTED_EDGE('',*,*,#393,.T.);
#204=ORIENTED_EDGE('',*,*,#366,.T.);
#205=ORIENTED_EDGE('',*,*,#394,.F.);
#206=ORIENTED_EDGE('',*,*,#370,.T.);
#207=ORIENTED_EDGE('',*,*,#395,.F.);
#208=ORIENTED_EDGE('',*,*,#374,.F.);
#209=ORIENTED_EDGE('',*,*,#396,.F.);
#210=ORIENTED_EDGE('',*,*,#396,.T.);
#211=ORIENTED_EDGE('',*,*,#345,.F.);
#212=ORIENTED_EDGE('',*,*,#375,.F.);
#213=ORIENTED_EDGE('',*,*,#397,.F.);
#214=ORIENTED_EDGE('',*,*,#397,.T.);
#215=ORIENTED_EDGE('',*,*,#344,.F.);
#216=ORIENTED_EDGE('',*,*,#359,.F.);
#217=ORIENTED_EDGE('',*,*,#386,.F.);
#218=ORIENTED_EDGE('',*,*,#347,.F.);
#219=ORIENTED_EDGE('',*,*,#388,.F.);
#220=ORIENTED_EDGE('',*,*,#365,.F.);
#221=ORIENTED_EDGE('',*,*,#392,.F.);
#222=ORIENTED_EDGE('',*,*,#349,.F.);
#223=ORIENTED_EDGE('',*,*,#387,.F.);
#224=ORIENTED_EDGE('',*,*,#363,.F.);
#225=ORIENTED_EDGE('',*,*,#390,.F.);
#226=ORIENTED_EDGE('',*,*,#351,.F.);
#227=ORIENTED_EDGE('',*,*,#393,.F.);
#228=ORIENTED_EDGE('',*,*,#361,.F.);
#229=ORIENTED_EDGE('',*,*,#389,.F.);
#230=ORIENTED_EDGE('',*,*,#353,.F.);
#231=ORIENTED_EDGE('',*,*,#391,.F.);
#232=ORIENTED_EDGE('',*,*,#395,.T.);
#233=ORIENTED_EDGE('',*,*,#398,.F.);
#234=ORIENTED_EDGE('',*,*,#399,.F.);
#235=ORIENTED_EDGE('',*,*,#394,.T.);
#236=ORIENTED_EDGE('',*,*,#400,.T.);
#237=ORIENTED_EDGE('',*,*,#400,.F.);
#238=ORIENTED_EDGE('',*,*,#399,.T.);
#239=ORIENTED_EDGE('',*,*,#401,.F.);
#240=ORIENTED_EDGE('',*,*,#385,.T.);
#241=ORIENTED_EDGE('',*,*,#402,.T.);
#242=ORIENTED_EDGE('',*,*,#402,.F.);
#243=ORIENTED_EDGE('',*,*,#401,.T.);
#244=ORIENTED_EDGE('',*,*,#403,.F.);
#245=ORIENTED_EDGE('',*,*,#384,.T.);
#246=ORIENTED_EDGE('',*,*,#404,.T.);
#247=ORIENTED_EDGE('',*,*,#404,.F.);
#248=ORIENTED_EDGE('',*,*,#403,.T.);
#249=ORIENTED_EDGE('',*,*,#405,.F.);
#250=ORIENTED_EDGE('',*,*,#383,.T.);
#251=ORIENTED_EDGE('',*,*,#406,.T.);
#252=ORIENTED_EDGE('',*,*,#406,.F.);
#253=ORIENTED_EDGE('',*,*,#405,.T.);
#254=ORIENTED_EDGE('',*,*,#382,.T.);
#255=ORIENTED_EDGE('',*,*,#407,.F.);
#256=ORIENTED_EDGE('',*,*,#408,.F.);
#257=ORIENTED_EDGE('',*,*,#381,.T.);
#258=ORIENTED_EDGE('',*,*,#409,.T.);
#259=ORIENTED_EDGE('',*,*,#409,.F.);
#260=ORIENTED_EDGE('',*,*,#408,.T.);
#261=ORIENTED_EDGE('',*,*,#410,.F.);
#262=ORIENTED_EDGE('',*,*,#380,.T.);
#263=ORIENTED_EDGE('',*,*,#411,.T.);
#264=ORIENTED_EDGE('',*,*,#411,.F.);
#265=ORIENTED_EDGE('',*,*,#410,.T.);
#266=ORIENTED_EDGE('',*,*,#412,.T.);
#267=ORIENTED_EDGE('',*,*,#412,.F.);
#268=ORIENTED_EDGE('',*,*,#398,.T.);
#269=ORIENTED_EDGE('',*,*,#413,.T.);
#270=ORIENTED_EDGE('',*,*,#413,.F.);
#271=ORIENTED_EDGE('',*,*,#407,.T.);
#272=ORIENTED_EDGE('',*,*,#414,.T.);
#273=ORIENTED_EDGE('',*,*,#415,.T.);
#274=ORIENTED_EDGE('',*,*,#416,.F.);
#275=ORIENTED_EDGE('',*,*,#376,.T.);
#276=ORIENTED_EDGE('',*,*,#417,.T.);
#277=ORIENTED_EDGE('',*,*,#418,.T.);
#278=ORIENTED_EDGE('',*,*,#414,.F.);
#279=ORIENTED_EDGE('',*,*,#379,.F.);
#280=ORIENTED_EDGE('',*,*,#419,.T.);
#281=ORIENTED_EDGE('',*,*,#420,.T.);
#282=ORIENTED_EDGE('',*,*,#417,.F.);
#283=ORIENTED_EDGE('',*,*,#378,.F.);
#284=ORIENTED_EDGE('',*,*,#416,.T.);
#285=ORIENTED_EDGE('',*,*,#421,.T.);
#286=ORIENTED_EDGE('',*,*,#419,.F.);
#287=ORIENTED_EDGE('',*,*,#377,.F.);
#288=ORIENTED_EDGE('',*,*,#422,.T.);
#289=ORIENTED_EDGE('',*,*,#423,.T.);
#290=ORIENTED_EDGE('',*,*,#424,.F.);
#291=ORIENTED_EDGE('',*,*,#355,.F.);
#292=ORIENTED_EDGE('',*,*,#425,.T.);
#293=ORIENTED_EDGE('',*,*,#426,.T.);
#294=ORIENTED_EDGE('',*,*,#422,.F.);
#295=ORIENTED_EDGE('',*,*,#354,.T.);
#296=ORIENTED_EDGE('',*,*,#427,.T.);
#297=ORIENTED_EDGE('',*,*,#428,.T.);
#298=ORIENTED_EDGE('',*,*,#425,.F.);
#299=ORIENTED_EDGE('',*,*,#357,.F.);
#300=ORIENTED_EDGE('',*,*,#424,.T.);
#301=ORIENTED_EDGE('',*,*,#429,.T.);
#302=ORIENTED_EDGE('',*,*,#427,.F.);
#303=ORIENTED_EDGE('',*,*,#356,.F.);
#304=ORIENTED_EDGE('',*,*,#430,.F.);
#305=ORIENTED_EDGE('',*,*,#339,.F.);
#306=ORIENTED_EDGE('',*,*,#431,.F.);
#307=ORIENTED_EDGE('',*,*,#420,.F.);
#308=ORIENTED_EDGE('',*,*,#431,.T.);
#309=ORIENTED_EDGE('',*,*,#338,.F.);
#310=ORIENTED_EDGE('',*,*,#432,.F.);
#311=ORIENTED_EDGE('',*,*,#418,.F.);
#312=ORIENTED_EDGE('',*,*,#430,.T.);
#313=ORIENTED_EDGE('',*,*,#421,.F.);
#314=ORIENTED_EDGE('',*,*,#433,.F.);
#315=ORIENTED_EDGE('',*,*,#336,.F.);
#316=ORIENTED_EDGE('',*,*,#432,.T.);
#317=ORIENTED_EDGE('',*,*,#337,.F.);
#318=ORIENTED_EDGE('',*,*,#433,.T.);
#319=ORIENTED_EDGE('',*,*,#415,.F.);
#320=ORIENTED_EDGE('',*,*,#434,.F.);
#321=ORIENTED_EDGE('',*,*,#343,.F.);
#322=ORIENTED_EDGE('',*,*,#435,.F.);
#323=ORIENTED_EDGE('',*,*,#429,.F.);
#324=ORIENTED_EDGE('',*,*,#435,.T.);
#325=ORIENTED_EDGE('',*,*,#342,.F.);
#326=ORIENTED_EDGE('',*,*,#436,.F.);
#327=ORIENTED_EDGE('',*,*,#428,.F.);
#328=ORIENTED_EDGE('',*,*,#434,.T.);
#329=ORIENTED_EDGE('',*,*,#423,.F.);
#330=ORIENTED_EDGE('',*,*,#437,.F.);
#331=ORIENTED_EDGE('',*,*,#340,.F.);
#332=ORIENTED_EDGE('',*,*,#436,.T.);
#333=ORIENTED_EDGE('',*,*,#341,.F.);
#334=ORIENTED_EDGE('',*,*,#437,.T.);
#335=ORIENTED_EDGE('',*,*,#426,.F.);
#336=EDGE_CURVE('',#438,#439,#516,.T.);
#337=EDGE_CURVE('',#439,#440,#44,.T.);
#338=EDGE_CURVE('',#440,#441,#517,.T.);
#339=EDGE_CURVE('',#441,#438,#45,.T.);
#340=EDGE_CURVE('',#442,#443,#518,.T.);
#341=EDGE_CURVE('',#443,#444,#46,.T.);
#342=EDGE_CURVE('',#444,#445,#519,.T.);
#343=EDGE_CURVE('',#445,#442,#47,.T.);
#344=EDGE_CURVE('',#446,#446,#520,.T.);
#345=EDGE_CURVE('',#447,#447,#521,.T.);
#346=EDGE_CURVE('',#448,#449,#48,.T.);
#347=EDGE_CURVE('',#448,#450,#522,.F.);
#348=EDGE_CURVE('',#450,#451,#49,.T.);
#349=EDGE_CURVE('',#451,#452,#523,.F.);
#350=EDGE_CURVE('',#452,#453,#50,.T.);
#351=EDGE_CURVE('',#453,#454,#524,.F.);
#352=EDGE_CURVE('',#455,#454,#51,.T.);
#353=EDGE_CURVE('',#455,#449,#525,.F.);
#354=EDGE_CURVE('',#456,#457,#52,.T.);
#355=EDGE_CURVE('',#456,#458,#526,.F.);
#356=EDGE_CURVE('',#458,#459,#53,.T.);
#357=EDGE_CURVE('',#459,#457,#527,.F.);
#358=EDGE_CURVE('',#460,#461,#54,.T.);
#359=EDGE_CURVE('',#460,#462,#528,.T.);
#360=EDGE_CURVE('',#462,#463,#55,.T.);
#361=EDGE_CURVE('',#463,#464,#529,.T.);
#362=EDGE_CURVE('',#464,#465,#56,.T.);
#363=EDGE_CURVE('',#465,#466,#530,.T.);
#364=EDGE_CURVE('',#467,#466,#57,.T.);
#365=EDGE_CURVE('',#467,#461,#531,.T.);
#366=EDGE_CURVE('',#468,#468,#532,.T.);
#367=EDGE_CURVE('',#469,#469,#533,.T.);
#368=EDGE_CURVE('',#470,#470,#534,.T.);
#369=EDGE_CURVE('',#471,#471,#535,.T.);
#370=EDGE_CURVE('',#472,#472,#536,.T.);
#371=EDGE_CURVE('',#473,#473,#537,.T.);
#372=EDGE_CURVE('',#474,#474,#538,.T.);
#373=EDGE_CURVE('',#475,#475,#539,.T.);
#374=EDGE_CURVE('',#476,#476,#540,.F.);
#375=EDGE_CURVE('',#477,#477,#541,.F.);
#376=EDGE_CURVE('',#478,#479,#58,.T.);
#377=EDGE_CURVE('',#478,#480,#542,.F.);
#378=EDGE_CURVE('',#480,#481,#59,.T.);
#379=EDGE_CURVE('',#481,#479,#543,.F.);
#380=EDGE_CURVE('',#482,#482,#544,.T.);
#381=EDGE_CURVE('',#483,#483,#545,.T.);
#382=EDGE_CURVE('',#484,#484,#546,.T.);
#383=EDGE_CURVE('',#485,#485,#547,.T.);
#384=EDGE_CURVE('',#486,#486,#548,.T.);
#385=EDGE_CURVE('',#487,#487,#549,.T.);
#386=EDGE_CURVE('',#450,#460,#60,.F.);
#387=EDGE_CURVE('',#461,#451,#61,.T.);
#388=EDGE_CURVE('',#462,#448,#62,.T.);
#389=EDGE_CURVE('',#449,#463,#63,.F.);
#390=EDGE_CURVE('',#454,#465,#64,.F.);
#391=EDGE_CURVE('',#464,#455,#65,.T.);
#392=EDGE_CURVE('',#452,#467,#66,.F.);
#393=EDGE_CURVE('',#466,#453,#67,.T.);
#394=EDGE_CURVE('',#488,#488,#550,.T.);
#395=EDGE_CURVE('',#489,#489,#551,.T.);
#396=EDGE_CURVE('',#490,#490,#552,.T.);
#397=EDGE_CURVE('',#491,#491,#553,.T.);
#398=EDGE_CURVE('',#492,#492,#554,.T.);
#399=EDGE_CURVE('',#493,#493,#555,.T.);
#400=EDGE_CURVE('',#494,#494,#556,.T.);
#401=EDGE_CURVE('',#495,#495,#557,.T.);
#402=EDGE_CURVE('',#496,#496,#558,.T.);
#403=EDGE_CURVE('',#497,#497,#559,.T.);
#404=EDGE_CURVE('',#498,#498,#560,.T.);
#405=EDGE_CURVE('',#499,#499,#561,.T.);
#406=EDGE_CURVE('',#500,#500,#562,.T.);
#407=EDGE_CURVE('',#501,#501,#563,.T.);
#408=EDGE_CURVE('',#502,#502,#564,.T.);
#409=EDGE_CURVE('',#503,#503,#565,.T.);
#410=EDGE_CURVE('',#504,#504,#566,.T.);
#411=EDGE_CURVE('',#505,#505,#567,.T.);
#412=EDGE_CURVE('',#506,#506,#568,.T.);
#413=EDGE_CURVE('',#507,#507,#569,.T.);
#414=EDGE_CURVE('',#479,#508,#68,.T.);
#415=EDGE_CURVE('',#508,#509,#69,.T.);
#416=EDGE_CURVE('',#478,#509,#70,.T.);
#417=EDGE_CURVE('',#481,#510,#71,.T.);
#418=EDGE_CURVE('',#510,#508,#570,.F.);
#419=EDGE_CURVE('',#480,#511,#72,.T.);
#420=EDGE_CURVE('',#511,#510,#73,.T.);
#421=EDGE_CURVE('',#509,#511,#571,.F.);
#422=EDGE_CURVE('',#456,#512,#74,.T.);
#423=EDGE_CURVE('',#512,#513,#572,.F.);
#424=EDGE_CURVE('',#458,#513,#75,.T.);
#425=EDGE_CURVE('',#457,#514,#76,.T.);
#426=EDGE_CURVE('',#514,#512,#77,.T.);
#427=EDGE_CURVE('',#459,#515,#78,.T.);
#428=EDGE_CURVE('',#515,#514,#573,.F.);
#429=EDGE_CURVE('',#513,#515,#79,.T.);
#430=EDGE_CURVE('',#438,#511,#80,.T.);
#431=EDGE_CURVE('',#510,#441,#81,.T.);
#432=EDGE_CURVE('',#508,#440,#82,.T.);
#433=EDGE_CURVE('',#439,#509,#83,.T.);
#434=EDGE_CURVE('',#442,#513,#84,.T.);
#435=EDGE_CURVE('',#515,#445,#85,.T.);
#436=EDGE_CURVE('',#514,#444,#86,.T.);
#437=EDGE_CURVE('',#443,#512,#87,.T.);
#438=VERTEX_POINT('',#1300);
#439=VERTEX_POINT('',#1301);
#440=VERTEX_POINT('',#1303);
#441=VERTEX_POINT('',#1305);
#442=VERTEX_POINT('',#1308);
#443=VERTEX_POINT('',#1309);
#444=VERTEX_POINT('',#1311);
#445=VERTEX_POINT('',#1313);
#446=VERTEX_POINT('',#1316);
#447=VERTEX_POINT('',#1318);
#448=VERTEX_POINT('',#1320);
#449=VERTEX_POINT('',#1321);
#450=VERTEX_POINT('',#1323);
#451=VERTEX_POINT('',#1325);
#452=VERTEX_POINT('',#1327);
#453=VERTEX_POINT('',#1329);
#454=VERTEX_POINT('',#1331);
#455=VERTEX_POINT('',#1333);
#456=VERTEX_POINT('',#1337);
#457=VERTEX_POINT('',#1338);
#458=VERTEX_POINT('',#1340);
#459=VERTEX_POINT('',#1342);
#460=VERTEX_POINT('',#1345);
#461=VERTEX_POINT('',#1346);
#462=VERTEX_POINT('',#1348);
#463=VERTEX_POINT('',#1350);
#464=VERTEX_POINT('',#1352);
#465=VERTEX_POINT('',#1354);
#466=VERTEX_POINT('',#1356);
#467=VERTEX_POINT('',#1358);
#468=VERTEX_POINT('',#1361);
#469=VERTEX_POINT('',#1363);
#470=VERTEX_POINT('',#1365);
#471=VERTEX_POINT('',#1367);
#472=VERTEX_POINT('',#1369);
#473=VERTEX_POINT('',#1371);
#474=VERTEX_POINT('',#1373);
#475=VERTEX_POINT('',#1375);
#476=VERTEX_POINT('',#1377);
#477=VERTEX_POINT('',#1379);
#478=VERTEX_POINT('',#1381);
#479=VERTEX_POINT('',#1382);
#480=VERTEX_POINT('',#1384);
#481=VERTEX_POINT('',#1386);
#482=VERTEX_POINT('',#1390);
#483=VERTEX_POINT('',#1393);
#484=VERTEX_POINT('',#1396);
#485=VERTEX_POINT('',#1399);
#486=VERTEX_POINT('',#1402);
#487=VERTEX_POINT('',#1405);
#488=VERTEX_POINT('',#1420);
#489=VERTEX_POINT('',#1423);
#490=VERTEX_POINT('',#1426);
#491=VERTEX_POINT('',#1430);
#492=VERTEX_POINT('',#1438);
#493=VERTEX_POINT('',#1441);
#494=VERTEX_POINT('',#1444);
#495=VERTEX_POINT('',#1448);
#496=VERTEX_POINT('',#1451);
#497=VERTEX_POINT('',#1455);
#498=VERTEX_POINT('',#1458);
#499=VERTEX_POINT('',#1462);
#500=VERTEX_POINT('',#1465);
#501=VERTEX_POINT('',#1469);
#502=VERTEX_POINT('',#1472);
#503=VERTEX_POINT('',#1475);
#504=VERTEX_POINT('',#1479);
#505=VERTEX_POINT('',#1482);
#506=VERTEX_POINT('',#1486);
#507=VERTEX_POINT('',#1490);
#508=VERTEX_POINT('',#1494);
#509=VERTEX_POINT('',#1496);
#510=VERTEX_POINT('',#1500);
#511=VERTEX_POINT('',#1504);
#512=VERTEX_POINT('',#1510);
#513=VERTEX_POINT('',#1512);
#514=VERTEX_POINT('',#1516);
#515=VERTEX_POINT('',#1520);
#516=CIRCLE('',#892,0.0029);
#517=CIRCLE('',#893,0.0029);
#518=CIRCLE('',#894,0.0029);
#519=CIRCLE('',#895,0.0029);
#520=CIRCLE('',#896,0.0029);
#521=CIRCLE('',#897,0.0029);
#522=CIRCLE('',#898,0.003);
#523=CIRCLE('',#899,0.003);
#524=CIRCLE('',#900,0.003);
#525=CIRCLE('',#901,0.003);
#526=CIRCLE('',#903,0.0015);
#527=CIRCLE('',#904,0.0015);
#528=CIRCLE('',#905,0.003);
#529=CIRCLE('',#906,0.003);
#530=CIRCLE('',#907,0.003);
#531=CIRCLE('',#908,0.003);
#532=CIRCLE('',#909,0.001425);
#533=CIRCLE('',#910,0.001425);
#534=CIRCLE('',#911,0.001425);
#535=CIRCLE('',#912,0.001425);
#536=CIRCLE('',#913,0.001675);
#537=CIRCLE('',#914,0.001675);
#538=CIRCLE('',#915,0.001675);
#539=CIRCLE('',#916,0.001675);
#540=CIRCLE('',#917,0.0015);
#541=CIRCLE('',#918,0.0015);
#542=CIRCLE('',#919,0.0015);
#543=CIRCLE('',#920,0.0015);
#544=CIRCLE('',#922,0.001675);
#545=CIRCLE('',#924,0.001675);
#546=CIRCLE('',#926,0.001675);
#547=CIRCLE('',#928,0.001425);
#548=CIRCLE('',#930,0.001425);
#549=CIRCLE('',#932,0.001425);
#550=CIRCLE('',#938,0.001425);
#551=CIRCLE('',#940,0.001675);
#552=CIRCLE('',#942,0.0015);
#553=CIRCLE('',#945,0.0015);
#554=CIRCLE('',#952,0.0011);
#555=CIRCLE('',#954,0.001);
#556=CIRCLE('',#956,0.001);
#557=CIRCLE('',#959,0.001);
#558=CIRCLE('',#961,0.001);
#559=CIRCLE('',#964,0.001);
#560=CIRCLE('',#966,0.001);
#561=CIRCLE('',#969,0.001);
#562=CIRCLE('',#971,0.001);
#563=CIRCLE('',#974,0.0011);
#564=CIRCLE('',#976,0.0011);
#565=CIRCLE('',#978,0.0011);
#566=CIRCLE('',#981,0.0011);
#567=CIRCLE('',#983,0.0011);
#568=CIRCLE('',#986,0.0011);
#569=CIRCLE('',#989,0.0011);
#570=CIRCLE('',#993,0.0015);
#571=CIRCLE('',#996,0.0015);
#572=CIRCLE('',#998,0.0015);
#573=CIRCLE('',#1001,0.0015);
#574=EDGE_LOOP('',(#132,#133,#134,#135));
#575=EDGE_LOOP('',(#136,#137,#138,#139));
#576=EDGE_LOOP('',(#140));
#577=EDGE_LOOP('',(#141));
#578=EDGE_LOOP('',(#142,#143,#144,#145,#146,#147,#148,#149));
#579=EDGE_LOOP('',(#150,#151,#152,#153));
#580=EDGE_LOOP('',(#154,#155,#156,#157,#158,#159,#160,#161));
#581=EDGE_LOOP('',(#162));
#582=EDGE_LOOP('',(#163));
#583=EDGE_LOOP('',(#164));
#584=EDGE_LOOP('',(#165));
#585=EDGE_LOOP('',(#166));
#586=EDGE_LOOP('',(#167));
#587=EDGE_LOOP('',(#168));
#588=EDGE_LOOP('',(#169));
#589=EDGE_LOOP('',(#170));
#590=EDGE_LOOP('',(#171));
#591=EDGE_LOOP('',(#172,#173,#174,#175));
#592=EDGE_LOOP('',(#176));
#593=EDGE_LOOP('',(#177));
#594=EDGE_LOOP('',(#178));
#595=EDGE_LOOP('',(#179));
#596=EDGE_LOOP('',(#180));
#597=EDGE_LOOP('',(#181));
#598=EDGE_LOOP('',(#182));
#599=EDGE_LOOP('',(#183));
#600=EDGE_LOOP('',(#184));
#601=EDGE_LOOP('',(#185));
#602=EDGE_LOOP('',(#186));
#603=EDGE_LOOP('',(#187));
#604=EDGE_LOOP('',(#188,#189,#190,#191));
#605=EDGE_LOOP('',(#192,#193,#194,#195));
#606=EDGE_LOOP('',(#196,#197,#198,#199));
#607=EDGE_LOOP('',(#200,#201,#202,#203));
#608=EDGE_LOOP('',(#204));
#609=EDGE_LOOP('',(#205));
#610=EDGE_LOOP('',(#206));
#611=EDGE_LOOP('',(#207));
#612=EDGE_LOOP('',(#208));
#613=EDGE_LOOP('',(#209));
#614=EDGE_LOOP('',(#210));
#615=EDGE_LOOP('',(#211));
#616=EDGE_LOOP('',(#212));
#617=EDGE_LOOP('',(#213));
#618=EDGE_LOOP('',(#214));
#619=EDGE_LOOP('',(#215));
#620=EDGE_LOOP('',(#216,#217,#218,#219));
#621=EDGE_LOOP('',(#220,#221,#222,#223));
#622=EDGE_LOOP('',(#224,#225,#226,#227));
#623=EDGE_LOOP('',(#228,#229,#230,#231));
#624=EDGE_LOOP('',(#232));
#625=EDGE_LOOP('',(#233));
#626=EDGE_LOOP('',(#234));
#627=EDGE_LOOP('',(#235));
#628=EDGE_LOOP('',(#236));
#629=EDGE_LOOP('',(#237));
#630=EDGE_LOOP('',(#238));
#631=EDGE_LOOP('',(#239));
#632=EDGE_LOOP('',(#240));
#633=EDGE_LOOP('',(#241));
#634=EDGE_LOOP('',(#242));
#635=EDGE_LOOP('',(#243));
#636=EDGE_LOOP('',(#244));
#637=EDGE_LOOP('',(#245));
#638=EDGE_LOOP('',(#246));
#639=EDGE_LOOP('',(#247));
#640=EDGE_LOOP('',(#248));
#641=EDGE_LOOP('',(#249));
#642=EDGE_LOOP('',(#250));
#643=EDGE_LOOP('',(#251));
#644=EDGE_LOOP('',(#252));
#645=EDGE_LOOP('',(#253));
#646=EDGE_LOOP('',(#254));
#647=EDGE_LOOP('',(#255));
#648=EDGE_LOOP('',(#256));
#649=EDGE_LOOP('',(#257));
#650=EDGE_LOOP('',(#258));
#651=EDGE_LOOP('',(#259));
#652=EDGE_LOOP('',(#260));
#653=EDGE_LOOP('',(#261));
#654=EDGE_LOOP('',(#262));
#655=EDGE_LOOP('',(#263));
#656=EDGE_LOOP('',(#264));
#657=EDGE_LOOP('',(#265));
#658=EDGE_LOOP('',(#266));
#659=EDGE_LOOP('',(#267));
#660=EDGE_LOOP('',(#268));
#661=EDGE_LOOP('',(#269));
#662=EDGE_LOOP('',(#270));
#663=EDGE_LOOP('',(#271));
#664=EDGE_LOOP('',(#272,#273,#274,#275));
#665=EDGE_LOOP('',(#276,#277,#278,#279));
#666=EDGE_LOOP('',(#280,#281,#282,#283));
#667=EDGE_LOOP('',(#284,#285,#286,#287));
#668=EDGE_LOOP('',(#288,#289,#290,#291));
#669=EDGE_LOOP('',(#292,#293,#294,#295));
#670=EDGE_LOOP('',(#296,#297,#298,#299));
#671=EDGE_LOOP('',(#300,#301,#302,#303));
#672=EDGE_LOOP('',(#304,#305,#306,#307));
#673=EDGE_LOOP('',(#308,#309,#310,#311));
#674=EDGE_LOOP('',(#312,#313,#314,#315));
#675=EDGE_LOOP('',(#316,#317,#318,#319));
#676=EDGE_LOOP('',(#320,#321,#322,#323));
#677=EDGE_LOOP('',(#324,#325,#326,#327));
#678=EDGE_LOOP('',(#328,#329,#330,#331));
#679=EDGE_LOOP('',(#332,#333,#334,#335));
#680=FACE_BOUND('',#574,.T.);
#681=FACE_BOUND('',#575,.T.);
#682=FACE_BOUND('',#576,.T.);
#683=FACE_BOUND('',#577,.T.);
#684=FACE_BOUND('',#578,.T.);
#685=FACE_BOUND('',#579,.T.);
#686=FACE_BOUND('',#580,.T.);
#687=FACE_BOUND('',#581,.T.);
#688=FACE_BOUND('',#582,.T.);
#689=FACE_BOUND('',#583,.T.);
#690=FACE_BOUND('',#584,.T.);
#691=FACE_BOUND('',#585,.T.);
#692=FACE_BOUND('',#586,.T.);
#693=FACE_BOUND('',#587,.T.);
#694=FACE_BOUND('',#588,.T.);
#695=FACE_BOUND('',#589,.T.);
#696=FACE_BOUND('',#590,.T.);
#697=FACE_BOUND('',#591,.T.);
#698=FACE_BOUND('',#592,.T.);
#699=FACE_BOUND('',#593,.T.);
#700=FACE_BOUND('',#594,.T.);
#701=FACE_BOUND('',#595,.T.);
#702=FACE_BOUND('',#596,.T.);
#703=FACE_BOUND('',#597,.T.);
#704=FACE_BOUND('',#598,.T.);
#705=FACE_BOUND('',#599,.T.);
#706=FACE_BOUND('',#600,.T.);
#707=FACE_BOUND('',#601,.T.);
#708=FACE_BOUND('',#602,.T.);
#709=FACE_BOUND('',#603,.T.);
#710=FACE_BOUND('',#604,.T.);
#711=FACE_BOUND('',#605,.T.);
#712=FACE_BOUND('',#606,.T.);
#713=FACE_BOUND('',#607,.T.);
#714=FACE_BOUND('',#608,.T.);
#715=FACE_BOUND('',#609,.T.);
#716=FACE_BOUND('',#610,.T.);
#717=FACE_BOUND('',#611,.T.);
#718=FACE_BOUND('',#612,.T.);
#719=FACE_BOUND('',#613,.T.);
#720=FACE_BOUND('',#614,.T.);
#721=FACE_BOUND('',#615,.T.);
#722=FACE_BOUND('',#616,.T.);
#723=FACE_BOUND('',#617,.T.);
#724=FACE_BOUND('',#618,.T.);
#725=FACE_BOUND('',#619,.T.);
#726=FACE_BOUND('',#620,.T.);
#727=FACE_BOUND('',#621,.T.);
#728=FACE_BOUND('',#622,.T.);
#729=FACE_BOUND('',#623,.T.);
#730=FACE_BOUND('',#624,.T.);
#731=FACE_BOUND('',#625,.T.);
#732=FACE_BOUND('',#626,.T.);
#733=FACE_BOUND('',#627,.T.);
#734=FACE_BOUND('',#628,.T.);
#735=FACE_BOUND('',#629,.T.);
#736=FACE_BOUND('',#630,.T.);
#737=FACE_BOUND('',#631,.T.);
#738=FACE_BOUND('',#632,.T.);
#739=FACE_BOUND('',#633,.T.);
#740=FACE_BOUND('',#634,.T.);
#741=FACE_BOUND('',#635,.T.);
#742=FACE_BOUND('',#636,.T.);
#743=FACE_BOUND('',#637,.T.);
#744=FACE_BOUND('',#638,.T.);
#745=FACE_BOUND('',#639,.T.);
#746=FACE_BOUND('',#640,.T.);
#747=FACE_BOUND('',#641,.T.);
#748=FACE_BOUND('',#642,.T.);
#749=FACE_BOUND('',#643,.T.);
#750=FACE_BOUND('',#644,.T.);
#751=FACE_BOUND('',#645,.T.);
#752=FACE_BOUND('',#646,.T.);
#753=FACE_BOUND('',#647,.T.);
#754=FACE_BOUND('',#648,.T.);
#755=FACE_BOUND('',#649,.T.);
#756=FACE_BOUND('',#650,.T.);
#757=FACE_BOUND('',#651,.T.);
#758=FACE_BOUND('',#652,.T.);
#759=FACE_BOUND('',#653,.T.);
#760=FACE_BOUND('',#654,.T.);
#761=FACE_BOUND('',#655,.T.);
#762=FACE_BOUND('',#656,.T.);
#763=FACE_BOUND('',#657,.T.);
#764=FACE_BOUND('',#658,.T.);
#765=FACE_BOUND('',#659,.T.);
#766=FACE_BOUND('',#660,.T.);
#767=FACE_BOUND('',#661,.T.);
#768=FACE_BOUND('',#662,.T.);
#769=FACE_BOUND('',#663,.T.);
#770=FACE_BOUND('',#664,.T.);
#771=FACE_BOUND('',#665,.T.);
#772=FACE_BOUND('',#666,.T.);
#773=FACE_BOUND('',#667,.T.);
#774=FACE_BOUND('',#668,.T.);
#775=FACE_BOUND('',#669,.T.);
#776=FACE_BOUND('',#670,.T.);
#777=FACE_BOUND('',#671,.T.);
#778=FACE_BOUND('',#672,.T.);
#779=FACE_BOUND('',#673,.T.);
#780=FACE_BOUND('',#674,.T.);
#781=FACE_BOUND('',#675,.T.);
#782=FACE_BOUND('',#676,.T.);
#783=FACE_BOUND('',#677,.T.);
#784=FACE_BOUND('',#678,.T.);
#785=FACE_BOUND('',#679,.T.);
#786=PLANE('',#891);
#787=PLANE('',#902);
#788=PLANE('',#933);
#789=PLANE('',#934);
#790=PLANE('',#935);
#791=PLANE('',#936);
#792=PLANE('',#951);
#793=PLANE('',#953);
#794=PLANE('',#955);
#795=PLANE('',#958);
#796=PLANE('',#960);
#797=PLANE('',#963);
#798=PLANE('',#965);
#799=PLANE('',#968);
#800=PLANE('',#970);
#801=PLANE('',#973);
#802=PLANE('',#975);
#803=PLANE('',#977);
#804=PLANE('',#980);
#805=PLANE('',#982);
#806=PLANE('',#985);
#807=PLANE('',#988);
#808=PLANE('',#991);
#809=PLANE('',#994);
#810=PLANE('',#999);
#811=PLANE('',#1002);
#812=PLANE('',#1003);
#813=PLANE('',#1006);
#814=PLANE('',#1007);
#815=PLANE('',#1010);
#816=ADVANCED_FACE('',(#680,#681,#682,#683,#684),#786,.F.);
#817=ADVANCED_FACE('',(#685,#686,#687,#688,#689,#690,#691,#692,#693,#694,
#695,#696,#697),#787,.T.);
#818=ADVANCED_FACE('',(#698,#699),#18,.T.);
#819=ADVANCED_FACE('',(#700,#701),#19,.T.);
#820=ADVANCED_FACE('',(#702,#703),#20,.T.);
#821=ADVANCED_FACE('',(#704,#705),#21,.T.);
#822=ADVANCED_FACE('',(#706,#707),#22,.T.);
#823=ADVANCED_FACE('',(#708,#709),#23,.T.);
#824=ADVANCED_FACE('',(#710),#788,.T.);
#825=ADVANCED_FACE('',(#711),#789,.F.);
#826=ADVANCED_FACE('',(#712),#790,.F.);
#827=ADVANCED_FACE('',(#713),#791,.T.);
#828=ADVANCED_FACE('',(#714,#715),#24,.T.);
#829=ADVANCED_FACE('',(#716,#717),#25,.T.);
#830=ADVANCED_FACE('',(#718,#719),#26,.F.);
#831=ADVANCED_FACE('',(#720,#721),#12,.F.);
#832=ADVANCED_FACE('',(#722,#723),#27,.F.);
#833=ADVANCED_FACE('',(#724,#725),#13,.F.);
#834=ADVANCED_FACE('',(#726),#28,.T.);
#835=ADVANCED_FACE('',(#727),#29,.T.);
#836=ADVANCED_FACE('',(#728),#30,.T.);
#837=ADVANCED_FACE('',(#729),#31,.T.);
#838=ADVANCED_FACE('',(#730,#731),#792,.T.);
#839=ADVANCED_FACE('',(#732,#733),#793,.T.);
#840=ADVANCED_FACE('',(#734),#794,.T.);
#841=ADVANCED_FACE('',(#735,#736),#32,.F.);
#842=ADVANCED_FACE('',(#737,#738),#795,.T.);
#843=ADVANCED_FACE('',(#739),#796,.T.);
#844=ADVANCED_FACE('',(#740,#741),#33,.F.);
#845=ADVANCED_FACE('',(#742,#743),#797,.T.);
#846=ADVANCED_FACE('',(#744),#798,.T.);
#847=ADVANCED_FACE('',(#745,#746),#34,.F.);
#848=ADVANCED_FACE('',(#747,#748),#799,.T.);
#849=ADVANCED_FACE('',(#749),#800,.T.);
#850=ADVANCED_FACE('',(#750,#751),#35,.F.);
#851=ADVANCED_FACE('',(#752,#753),#801,.T.);
#852=ADVANCED_FACE('',(#754,#755),#802,.T.);
#853=ADVANCED_FACE('',(#756),#803,.T.);
#854=ADVANCED_FACE('',(#757,#758),#36,.F.);
#855=ADVANCED_FACE('',(#759,#760),#804,.T.);
#856=ADVANCED_FACE('',(#761),#805,.T.);
#857=ADVANCED_FACE('',(#762,#763),#37,.F.);
#858=ADVANCED_FACE('',(#764),#806,.T.);
#859=ADVANCED_FACE('',(#765,#766),#38,.F.);
#860=ADVANCED_FACE('',(#767),#807,.T.);
#861=ADVANCED_FACE('',(#768,#769),#39,.F.);
#862=ADVANCED_FACE('',(#770),#808,.F.);
#863=ADVANCED_FACE('',(#771),#40,.F.);
#864=ADVANCED_FACE('',(#772),#809,.T.);
#865=ADVANCED_FACE('',(#773),#41,.F.);
#866=ADVANCED_FACE('',(#774),#42,.F.);
#867=ADVANCED_FACE('',(#775),#810,.F.);
#868=ADVANCED_FACE('',(#776),#43,.F.);
#869=ADVANCED_FACE('',(#777),#811,.T.);
#870=ADVANCED_FACE('',(#778),#812,.T.);
#871=ADVANCED_FACE('',(#779),#14,.F.);
#872=ADVANCED_FACE('',(#780),#15,.F.);
#873=ADVANCED_FACE('',(#781),#813,.F.);
#874=ADVANCED_FACE('',(#782),#814,.T.);
#875=ADVANCED_FACE('',(#783),#16,.F.);
#876=ADVANCED_FACE('',(#784),#17,.F.);
#877=ADVANCED_FACE('',(#785),#815,.F.);
#878=CLOSED_SHELL('',(#816,#817,#818,#819,#820,#821,#822,#823,#824,#825,
#826,#827,#828,#829,#830,#831,#832,#833,#834,#835,#836,#837,#838,#839,#840,
#841,#842,#843,#844,#845,#846,#847,#848,#849,#850,#851,#852,#853,#854,#855,
#856,#857,#858,#859,#860,#861,#862,#863,#864,#865,#866,#867,#868,#869,#870,
#871,#872,#873,#874,#875,#876,#877));
#879=STYLED_ITEM('',(#880),#887);
#880=PRESENTATION_STYLE_ASSIGNMENT((#881));
#881=SURFACE_STYLE_USAGE(.BOTH.,#882);
#882=SURFACE_SIDE_STYLE('',(#883));
#883=SURFACE_STYLE_FILL_AREA(#884);
#884=FILL_AREA_STYLE('',(#885));
#885=FILL_AREA_STYLE_COLOUR('',#886);
#886=COLOUR_RGB('',0.615686274509804,0.811764705882353,0.929411764705882);
#887=MANIFOLD_SOLID_BREP('Part 1',#878);
#888=SHAPE_DEFINITION_REPRESENTATION(#1546,#889);
#889=SHAPE_REPRESENTATION('Part 1',(#890),#1541);
#890=AXIS2_PLACEMENT_3D('',#1297,#1011,#1012);
#891=AXIS2_PLACEMENT_3D('',#1298,#1013,#1014);
#892=AXIS2_PLACEMENT_3D('',#1299,#1015,#1016);
#893=AXIS2_PLACEMENT_3D('',#1304,#1018,#1019);
#894=AXIS2_PLACEMENT_3D('',#1307,#1021,#1022);
#895=AXIS2_PLACEMENT_3D('',#1312,#1024,#1025);
#896=AXIS2_PLACEMENT_3D('',#1315,#1027,#1028);
#897=AXIS2_PLACEMENT_3D('',#1317,#1029,#1030);
#898=AXIS2_PLACEMENT_3D('',#1322,#1032,#1033);
#899=AXIS2_PLACEMENT_3D('',#1326,#1035,#1036);
#900=AXIS2_PLACEMENT_3D('',#1330,#1038,#1039);
#901=AXIS2_PLACEMENT_3D('',#1334,#1041,#1042);
#902=AXIS2_PLACEMENT_3D('',#1335,#1043,#1044);
#903=AXIS2_PLACEMENT_3D('',#1339,#1046,#1047);
#904=AXIS2_PLACEMENT_3D('',#1343,#1049,#1050);
#905=AXIS2_PLACEMENT_3D('',#1347,#1052,#1053);
#906=AXIS2_PLACEMENT_3D('',#1351,#1055,#1056);
#907=AXIS2_PLACEMENT_3D('',#1355,#1058,#1059);
#908=AXIS2_PLACEMENT_3D('',#1359,#1061,#1062);
#909=AXIS2_PLACEMENT_3D('',#1360,#1063,#1064);
#910=AXIS2_PLACEMENT_3D('',#1362,#1065,#1066);
#911=AXIS2_PLACEMENT_3D('',#1364,#1067,#1068);
#912=AXIS2_PLACEMENT_3D('',#1366,#1069,#1070);
#913=AXIS2_PLACEMENT_3D('',#1368,#1071,#1072);
#914=AXIS2_PLACEMENT_3D('',#1370,#1073,#1074);
#915=AXIS2_PLACEMENT_3D('',#1372,#1075,#1076);
#916=AXIS2_PLACEMENT_3D('',#1374,#1077,#1078);
#917=AXIS2_PLACEMENT_3D('',#1376,#1079,#1080);
#918=AXIS2_PLACEMENT_3D('',#1378,#1081,#1082);
#919=AXIS2_PLACEMENT_3D('',#1383,#1084,#1085);
#920=AXIS2_PLACEMENT_3D('',#1387,#1087,#1088);
#921=AXIS2_PLACEMENT_3D('',#1388,#1089,#1090);
#922=AXIS2_PLACEMENT_3D('',#1389,#1091,#1092);
#923=AXIS2_PLACEMENT_3D('',#1391,#1093,#1094);
#924=AXIS2_PLACEMENT_3D('',#1392,#1095,#1096);
#925=AXIS2_PLACEMENT_3D('',#1394,#1097,#1098);
#926=AXIS2_PLACEMENT_3D('',#1395,#1099,#1100);
#927=AXIS2_PLACEMENT_3D('',#1397,#1101,#1102);
#928=AXIS2_PLACEMENT_3D('',#1398,#1103,#1104);
#929=AXIS2_PLACEMENT_3D('',#1400,#1105,#1106);
#930=AXIS2_PLACEMENT_3D('',#1401,#1107,#1108);
#931=AXIS2_PLACEMENT_3D('',#1403,#1109,#1110);
#932=AXIS2_PLACEMENT_3D('',#1404,#1111,#1112);
#933=AXIS2_PLACEMENT_3D('',#1406,#1113,#1114);
#934=AXIS2_PLACEMENT_3D('',#1409,#1117,#1118);
#935=AXIS2_PLACEMENT_3D('',#1412,#1121,#1122);
#936=AXIS2_PLACEMENT_3D('',#1415,#1125,#1126);
#937=AXIS2_PLACEMENT_3D('',#1418,#1129,#1130);
#938=AXIS2_PLACEMENT_3D('',#1419,#1131,#1132);
#939=AXIS2_PLACEMENT_3D('',#1421,#1133,#1134);
#940=AXIS2_PLACEMENT_3D('',#1422,#1135,#1136);
#941=AXIS2_PLACEMENT_3D('',#1424,#1137,#1138);
#942=AXIS2_PLACEMENT_3D('',#1425,#1139,#1140);
#943=AXIS2_PLACEMENT_3D('',#1427,#1141,#1142);
#944=AXIS2_PLACEMENT_3D('',#1428,#1143,#1144);
#945=AXIS2_PLACEMENT_3D('',#1429,#1145,#1146);
#946=AXIS2_PLACEMENT_3D('',#1431,#1147,#1148);
#947=AXIS2_PLACEMENT_3D('',#1432,#1149,#1150);
#948=AXIS2_PLACEMENT_3D('',#1433,#1151,#1152);
#949=AXIS2_PLACEMENT_3D('',#1434,#1153,#1154);
#950=AXIS2_PLACEMENT_3D('',#1435,#1155,#1156);
#951=AXIS2_PLACEMENT_3D('',#1436,#1157,#1158);
#952=AXIS2_PLACEMENT_3D('',#1437,#1159,#1160);
#953=AXIS2_PLACEMENT_3D('',#1439,#1161,#1162);
#954=AXIS2_PLACEMENT_3D('',#1440,#1163,#1164);
#955=AXIS2_PLACEMENT_3D('',#1442,#1165,#1166);
#956=AXIS2_PLACEMENT_3D('',#1443,#1167,#1168);
#957=AXIS2_PLACEMENT_3D('',#1445,#1169,#1170);
#958=AXIS2_PLACEMENT_3D('',#1446,#1171,#1172);
#959=AXIS2_PLACEMENT_3D('',#1447,#1173,#1174);
#960=AXIS2_PLACEMENT_3D('',#1449,#1175,#1176);
#961=AXIS2_PLACEMENT_3D('',#1450,#1177,#1178);
#962=AXIS2_PLACEMENT_3D('',#1452,#1179,#1180);
#963=AXIS2_PLACEMENT_3D('',#1453,#1181,#1182);
#964=AXIS2_PLACEMENT_3D('',#1454,#1183,#1184);
#965=AXIS2_PLACEMENT_3D('',#1456,#1185,#1186);
#966=AXIS2_PLACEMENT_3D('',#1457,#1187,#1188);
#967=AXIS2_PLACEMENT_3D('',#1459,#1189,#1190);
#968=AXIS2_PLACEMENT_3D('',#1460,#1191,#1192);
#969=AXIS2_PLACEMENT_3D('',#1461,#1193,#1194);
#970=AXIS2_PLACEMENT_3D('',#1463,#1195,#1196);
#971=AXIS2_PLACEMENT_3D('',#1464,#1197,#1198);
#972=AXIS2_PLACEMENT_3D('',#1466,#1199,#1200);
#973=AXIS2_PLACEMENT_3D('',#1467,#1201,#1202);
#974=AXIS2_PLACEMENT_3D('',#1468,#1203,#1204);
#975=AXIS2_PLACEMENT_3D('',#1470,#1205,#1206);
#976=AXIS2_PLACEMENT_3D('',#1471,#1207,#1208);
#977=AXIS2_PLACEMENT_3D('',#1473,#1209,#1210);
#978=AXIS2_PLACEMENT_3D('',#1474,#1211,#1212);
#979=AXIS2_PLACEMENT_3D('',#1476,#1213,#1214);
#980=AXIS2_PLACEMENT_3D('',#1477,#1215,#1216);
#981=AXIS2_PLACEMENT_3D('',#1478,#1217,#1218);
#982=AXIS2_PLACEMENT_3D('',#1480,#1219,#1220);
#983=AXIS2_PLACEMENT_3D('',#1481,#1221,#1222);
#984=AXIS2_PLACEMENT_3D('',#1483,#1223,#1224);
#985=AXIS2_PLACEMENT_3D('',#1484,#1225,#1226);
#986=AXIS2_PLACEMENT_3D('',#1485,#1227,#1228);
#987=AXIS2_PLACEMENT_3D('',#1487,#1229,#1230);
#988=AXIS2_PLACEMENT_3D('',#1488,#1231,#1232);
#989=AXIS2_PLACEMENT_3D('',#1489,#1233,#1234);
#990=AXIS2_PLACEMENT_3D('',#1491,#1235,#1236);
#991=AXIS2_PLACEMENT_3D('',#1492,#1237,#1238);
#992=AXIS2_PLACEMENT_3D('',#1498,#1242,#1243);
#993=AXIS2_PLACEMENT_3D('',#1501,#1245,#1246);
#994=AXIS2_PLACEMENT_3D('',#1502,#1247,#1248);
#995=AXIS2_PLACEMENT_3D('',#1506,#1251,#1252);
#996=AXIS2_PLACEMENT_3D('',#1507,#1253,#1254);
#997=AXIS2_PLACEMENT_3D('',#1508,#1255,#1256);
#998=AXIS2_PLACEMENT_3D('',#1511,#1258,#1259);
#999=AXIS2_PLACEMENT_3D('',#1514,#1261,#1262);
#1000=AXIS2_PLACEMENT_3D('',#1518,#1265,#1266);
#1001=AXIS2_PLACEMENT_3D('',#1521,#1268,#1269);
#1002=AXIS2_PLACEMENT_3D('',#1522,#1270,#1271);
#1003=AXIS2_PLACEMENT_3D('',#1524,#1273,#1274);
#1004=AXIS2_PLACEMENT_3D('',#1527,#1277,#1278);
#1005=AXIS2_PLACEMENT_3D('',#1529,#1280,#1281);
#1006=AXIS2_PLACEMENT_3D('',#1531,#1283,#1284);
#1007=AXIS2_PLACEMENT_3D('',#1532,#1285,#1286);
#1008=AXIS2_PLACEMENT_3D('',#1535,#1289,#1290);
#1009=AXIS2_PLACEMENT_3D('',#1537,#1292,#1293);
#1010=AXIS2_PLACEMENT_3D('',#1539,#1295,#1296);
#1011=DIRECTION('',(0.,0.,1.));
#1012=DIRECTION('',(1.,0.,0.));
#1013=DIRECTION('',(0.,0.,1.));
#1014=DIRECTION('',(1.,0.,0.));
#1015=DIRECTION('',(0.,0.,1.));
#1016=DIRECTION('',(1.,0.,0.));
#1017=DIRECTION('',(0.,1.,0.));
#1018=DIRECTION('',(0.,0.,1.));
#1019=DIRECTION('',(1.,0.,0.));
#1020=DIRECTION('',(0.,-1.,0.));
#1021=DIRECTION('',(0.,0.,1.));
#1022=DIRECTION('',(1.,0.,0.));
#1023=DIRECTION('',(0.,1.,0.));
#1024=DIRECTION('',(0.,0.,1.));
#1025=DIRECTION('',(1.,0.,0.));
#1026=DIRECTION('',(0.,-1.,0.));
#1027=DIRECTION('',(0.,0.,1.));
#1028=DIRECTION('',(1.,0.,0.));
#1029=DIRECTION('',(0.,0.,1.));
#1030=DIRECTION('',(1.,0.,0.));
#1031=DIRECTION('',(0.,-1.,0.));
#1032=DIRECTION('',(0.,0.,1.));
#1033=DIRECTION('',(1.,0.,0.));
#1034=DIRECTION('',(1.,0.,0.));
#1035=DIRECTION('',(0.,0.,1.));
#1036=DIRECTION('',(1.,0.,0.));
#1037=DIRECTION('',(0.,-1.,0.));
#1038=DIRECTION('',(0.,0.,1.));
#1039=DIRECTION('',(1.,0.,0.));
#1040=DIRECTION('',(1.,0.,0.));
#1041=DIRECTION('',(0.,0.,1.));
#1042=DIRECTION('',(1.,0.,0.));
#1043=DIRECTION('',(0.,0.,1.));
#1044=DIRECTION('',(1.,0.,0.));
#1045=DIRECTION('',(0.,1.,0.));
#1046=DIRECTION('',(0.,0.,1.));
#1047=DIRECTION('',(1.,0.,0.));
#1048=DIRECTION('',(0.,1.,0.));
#1049=DIRECTION('',(0.,0.,1.));
#1050=DIRECTION('',(1.,0.,0.));
#1051=DIRECTION('',(1.,0.,0.));
#1052=DIRECTION('',(0.,0.,1.));
#1053=DIRECTION('',(1.,0.,0.));
#1054=DIRECTION('',(0.,-1.,0.));
#1055=DIRECTION('',(0.,0.,1.));
#1056=DIRECTION('',(1.,0.,0.));
#1057=DIRECTION('',(1.,0.,0.));
#1058=DIRECTION('',(0.,0.,1.));
#1059=DIRECTION('',(1.,0.,0.));
#1060=DIRECTION('',(0.,-1.,0.));
#1061=DIRECTION('',(0.,0.,1.));
#1062=DIRECTION('',(1.,0.,0.));
#1063=DIRECTION('',(0.,0.,1.));
#1064=DIRECTION('',(1.,0.,0.));
#1065=DIRECTION('',(0.,0.,1.));
#1066=DIRECTION('',(1.,0.,0.));
#1067=DIRECTION('',(0.,0.,1.));
#1068=DIRECTION('',(1.,0.,0.));
#1069=DIRECTION('',(0.,0.,1.));
#1070=DIRECTION('',(1.,0.,0.));
#1071=DIRECTION('',(0.,0.,1.));
#1072=DIRECTION('',(1.,0.,0.));
#1073=DIRECTION('',(0.,0.,1.));
#1074=DIRECTION('',(1.,0.,0.));
#1075=DIRECTION('',(0.,0.,1.));
#1076=DIRECTION('',(1.,0.,0.));
#1077=DIRECTION('',(0.,0.,1.));
#1078=DIRECTION('',(1.,0.,0.));
#1079=DIRECTION('',(0.,0.,1.));
#1080=DIRECTION('',(1.,0.,0.));
#1081=DIRECTION('',(0.,0.,1.));
#1082=DIRECTION('',(1.,0.,0.));
#1083=DIRECTION('',(0.,1.,0.));
#1084=DIRECTION('',(0.,0.,1.));
#1085=DIRECTION('',(1.,0.,0.));
#1086=DIRECTION('',(0.,1.,0.));
#1087=DIRECTION('',(0.,0.,1.));
#1088=DIRECTION('',(1.,0.,0.));
#1089=DIRECTION('',(0.,0.,-1.));
#1090=DIRECTION('',(-1.,0.,0.));
#1091=DIRECTION('',(0.,0.,1.));
#1092=DIRECTION('',(1.,0.,0.));
#1093=DIRECTION('',(0.,0.,-1.));
#1094=DIRECTION('',(-1.,0.,0.));
#1095=DIRECTION('',(0.,0.,1.));
#1096=DIRECTION('',(1.,0.,0.));
#1097=DIRECTION('',(0.,0.,-1.));
#1098=DIRECTION('',(-1.,0.,0.));
#1099=DIRECTION('',(0.,0.,1.));
#1100=DIRECTION('',(1.,0.,0.));
#1101=DIRECTION('',(0.,0.,-1.));
#1102=DIRECTION('',(-1.,0.,0.));
#1103=DIRECTION('',(0.,0.,1.));
#1104=DIRECTION('',(1.,0.,0.));
#1105=DIRECTION('',(0.,0.,-1.));
#1106=DIRECTION('',(-1.,0.,0.));
#1107=DIRECTION('',(0.,0.,1.));
#1108=DIRECTION('',(1.,0.,0.));
#1109=DIRECTION('',(0.,0.,-1.));
#1110=DIRECTION('',(-1.,0.,0.));
#1111=DIRECTION('',(0.,0.,1.));
#1112=DIRECTION('',(1.,0.,0.));
#1113=DIRECTION('',(0.,1.,0.));
#1114=DIRECTION('',(0.,0.,1.));
#1115=DIRECTION('',(0.,0.,-1.));
#1116=DIRECTION('',(0.,0.,-1.));
#1117=DIRECTION('',(1.,0.,0.));
#1118=DIRECTION('',(0.,0.,-1.));
#1119=DIRECTION('',(0.,0.,-1.));
#1120=DIRECTION('',(0.,0.,-1.));
#1121=DIRECTION('',(0.,1.,0.));
#1122=DIRECTION('',(0.,0.,1.));
#1123=DIRECTION('',(0.,0.,-1.));
#1124=DIRECTION('',(0.,0.,-1.));
#1125=DIRECTION('',(1.,0.,0.));
#1126=DIRECTION('',(0.,0.,-1.));
#1127=DIRECTION('',(0.,0.,-1.));
#1128=DIRECTION('',(0.,0.,-1.));
#1129=DIRECTION('',(0.,0.,-1.));
#1130=DIRECTION('',(-1.,0.,0.));
#1131=DIRECTION('',(0.,0.,1.));
#1132=DIRECTION('',(1.,0.,0.));
#1133=DIRECTION('',(0.,0.,-1.));
#1134=DIRECTION('',(-1.,0.,0.));
#1135=DIRECTION('',(0.,0.,1.));
#1136=DIRECTION('',(1.,0.,0.));
#1137=DIRECTION('',(0.,0.,1.));
#1138=DIRECTION('',(1.,0.,0.));
#1139=DIRECTION('',(0.,0.,1.));
#1140=DIRECTION('',(1.,0.,0.));
#1141=DIRECTION('',(0.,0.,-1.));
#1142=DIRECTION('',(-1.,0.,0.));
#1143=DIRECTION('',(0.,0.,1.));
#1144=DIRECTION('',(1.,0.,0.));
#1145=DIRECTION('',(0.,0.,1.));
#1146=DIRECTION('',(1.,0.,0.));
#1147=DIRECTION('',(0.,0.,-1.));
#1148=DIRECTION('',(-1.,0.,0.));
#1149=DIRECTION('',(0.,0.,1.));
#1150=DIRECTION('',(1.,0.,0.));
#1151=DIRECTION('',(0.,0.,-1.));
#1152=DIRECTION('',(-1.,0.,0.));
#1153=DIRECTION('',(0.,0.,1.));
#1154=DIRECTION('',(1.,0.,0.));
#1155=DIRECTION('',(0.,0.,-1.));
#1156=DIRECTION('',(-1.,0.,0.));
#1157=DIRECTION('',(0.,0.,1.));
#1158=DIRECTION('',(1.,0.,0.));
#1159=DIRECTION('',(0.,0.,1.));
#1160=DIRECTION('',(1.,0.,0.));
#1161=DIRECTION('',(0.,0.,1.));
#1162=DIRECTION('',(1.,0.,0.));
#1163=DIRECTION('',(0.,0.,1.));
#1164=DIRECTION('',(1.,0.,0.));
#1165=DIRECTION('',(0.,0.,1.));
#1166=DIRECTION('',(1.,0.,0.));
#1167=DIRECTION('',(0.,0.,1.));
#1168=DIRECTION('',(1.,0.,0.));
#1169=DIRECTION('',(0.,0.,-1.));
#1170=DIRECTION('',(-1.,0.,0.));
#1171=DIRECTION('',(0.,0.,1.));
#1172=DIRECTION('',(1.,0.,0.));
#1173=DIRECTION('',(0.,0.,1.));
#1174=DIRECTION('',(1.,0.,0.));
#1175=DIRECTION('',(0.,0.,1.));
#1176=DIRECTION('',(1.,0.,0.));
#1177=DIRECTION('',(0.,0.,1.));
#1178=DIRECTION('',(1.,0.,0.));
#1179=DIRECTION('',(0.,0.,-1.));
#1180=DIRECTION('',(-1.,0.,0.));
#1181=DIRECTION('',(0.,0.,1.));
#1182=DIRECTION('',(1.,0.,0.));
#1183=DIRECTION('',(0.,0.,1.));
#1184=DIRECTION('',(1.,0.,0.));
#1185=DIRECTION('',(0.,0.,1.));
#1186=DIRECTION('',(1.,0.,0.));
#1187=DIRECTION('',(0.,0.,1.));
#1188=DIRECTION('',(1.,0.,0.));
#1189=DIRECTION('',(0.,0.,-1.));
#1190=DIRECTION('',(-1.,0.,0.));
#1191=DIRECTION('',(0.,0.,1.));
#1192=DIRECTION('',(1.,0.,0.));
#1193=DIRECTION('',(0.,0.,1.));
#1194=DIRECTION('',(1.,0.,0.));
#1195=DIRECTION('',(0.,0.,1.));
#1196=DIRECTION('',(1.,0.,0.));
#1197=DIRECTION('',(0.,0.,1.));
#1198=DIRECTION('',(1.,0.,0.));
#1199=DIRECTION('',(0.,0.,-1.));
#1200=DIRECTION('',(-1.,0.,0.));
#1201=DIRECTION('',(0.,0.,1.));
#1202=DIRECTION('',(1.,0.,0.));
#1203=DIRECTION('',(0.,0.,1.));
#1204=DIRECTION('',(1.,0.,0.));
#1205=DIRECTION('',(0.,0.,1.));
#1206=DIRECTION('',(1.,0.,0.));
#1207=DIRECTION('',(0.,0.,1.));
#1208=DIRECTION('',(1.,0.,0.));
#1209=DIRECTION('',(0.,0.,1.));
#1210=DIRECTION('',(1.,0.,0.));
#1211=DIRECTION('',(0.,0.,1.));
#1212=DIRECTION('',(1.,0.,0.));
#1213=DIRECTION('',(0.,0.,-1.));
#1214=DIRECTION('',(-1.,0.,0.));
#1215=DIRECTION('',(0.,0.,1.));
#1216=DIRECTION('',(1.,0.,0.));
#1217=DIRECTION('',(0.,0.,1.));
#1218=DIRECTION('',(1.,0.,0.));
#1219=DIRECTION('',(0.,0.,1.));
#1220=DIRECTION('',(1.,0.,0.));
#1221=DIRECTION('',(0.,0.,1.));
#1222=DIRECTION('',(1.,0.,0.));
#1223=DIRECTION('',(0.,0.,-1.));
#1224=DIRECTION('',(-1.,0.,0.));
#1225=DIRECTION('',(0.,0.,1.));
#1226=DIRECTION('',(1.,0.,0.));
#1227=DIRECTION('',(0.,0.,1.));
#1228=DIRECTION('',(1.,0.,0.));
#1229=DIRECTION('',(0.,0.,-1.));
#1230=DIRECTION('',(-1.,0.,0.));
#1231=DIRECTION('',(0.,0.,1.));
#1232=DIRECTION('',(1.,0.,0.));
#1233=DIRECTION('',(0.,0.,1.));
#1234=DIRECTION('',(1.,0.,0.));
#1235=DIRECTION('',(0.,0.,-1.));
#1236=DIRECTION('',(-1.,0.,0.));
#1237=DIRECTION('',(1.,0.,0.));
#1238=DIRECTION('',(0.,0.,-1.));
#1239=DIRECTION('',(0.,0.,-1.));
#1240=DIRECTION('',(0.,-1.,0.));
#1241=DIRECTION('',(0.,0.,-1.));
#1242=DIRECTION('',(0.,0.,-1.));
#1243=DIRECTION('',(-1.,0.,0.));
#1244=DIRECTION('',(0.,0.,-1.));
#1245=DIRECTION('',(0.,0.,1.));
#1246=DIRECTION('',(1.,0.,0.));
#1247=DIRECTION('',(1.,0.,0.));
#1248=DIRECTION('',(0.,0.,-1.));
#1249=DIRECTION('',(0.,0.,-1.));
#1250=DIRECTION('',(0.,1.,0.));
#1251=DIRECTION('',(0.,0.,-1.));
#1252=DIRECTION('',(-1.,0.,0.));
#1253=DIRECTION('',(0.,0.,1.));
#1254=DIRECTION('',(1.,0.,0.));
#1255=DIRECTION('',(0.,0.,-1.));
#1256=DIRECTION('',(-1.,0.,0.));
#1257=DIRECTION('',(0.,0.,-1.));
#1258=DIRECTION('',(0.,0.,1.));
#1259=DIRECTION('',(1.,0.,0.));
#1260=DIRECTION('',(0.,0.,-1.));
#1261=DIRECTION('',(1.,0.,0.));
#1262=DIRECTION('',(0.,0.,-1.));
#1263=DIRECTION('',(0.,0.,-1.));
#1264=DIRECTION('',(0.,-1.,0.));
#1265=DIRECTION('',(0.,0.,-1.));
#1266=DIRECTION('',(-1.,0.,0.));
#1267=DIRECTION('',(0.,0.,-1.));
#1268=DIRECTION('',(0.,0.,1.));
#1269=DIRECTION('',(1.,0.,0.));
#1270=DIRECTION('',(1.,0.,0.));
#1271=DIRECTION('',(0.,0.,-1.));
#1272=DIRECTION('',(0.,1.,0.));
#1273=DIRECTION('',(0.707106781186548,0.,-0.707106781186548));
#1274=DIRECTION('',(0.,1.,0.));
#1275=DIRECTION('',(0.707106781186548,0.,0.707106781186548));
#1276=DIRECTION('',(-0.707106781186548,0.,-0.707106781186548));
#1277=DIRECTION('',(0.,0.,-1.));
#1278=DIRECTION('',(-1.,0.,0.));
#1279=DIRECTION('',(0.707106781186548,0.,-0.707106781186548));
#1280=DIRECTION('',(0.,0.,-1.));
#1281=DIRECTION('',(-1.,0.,0.));
#1282=DIRECTION('',(-0.707106781186548,0.,0.707106781186548));
#1283=DIRECTION('',(0.707106781186548,0.,0.707106781186548));
#1284=DIRECTION('',(0.,-1.,0.));
#1285=DIRECTION('',(0.707106781186548,0.,-0.707106781186548));
#1286=DIRECTION('',(0.,1.,0.));
#1287=DIRECTION('',(0.707106781186548,0.,0.707106781186548));
#1288=DIRECTION('',(-0.707106781186548,0.,-0.707106781186548));
#1289=DIRECTION('',(0.,0.,-1.));
#1290=DIRECTION('',(-1.,0.,0.));
#1291=DIRECTION('',(0.707106781186548,0.,-0.707106781186548));
#1292=DIRECTION('',(0.,0.,-1.));
#1293=DIRECTION('',(-1.,0.,0.));
#1294=DIRECTION('',(-0.707106781186548,0.,0.707106781186548));
#1295=DIRECTION('',(0.707106781186548,0.,0.707106781186548));
#1296=DIRECTION('',(0.,-1.,0.));
#1297=CARTESIAN_POINT('',(0.,0.,0.));
#1298=CARTESIAN_POINT('',(0.000139564558744434,0.0190408909053238,0.));
#1299=CARTESIAN_POINT('',(0.0771938451298739,-0.0397160491616029,0.));
#1300=CARTESIAN_POINT('',(0.0742938451298739,-0.0397160491616029,0.));
#1301=CARTESIAN_POINT('',(0.0800938451298739,-0.0397160491616029,0.));
#1302=CARTESIAN_POINT('',(0.0800938451298739,0.0190408909053238,0.));
#1303=CARTESIAN_POINT('',(0.0800938451298739,-0.035716049161603,0.));
#1304=CARTESIAN_POINT('',(0.0771938451298739,-0.035716049161603,0.));
#1305=CARTESIAN_POINT('',(0.0742938451298739,-0.035716049161603,0.));
#1306=CARTESIAN_POINT('',(0.0742938451298739,-0.0397160491616029,0.));
#1307=CARTESIAN_POINT('',(-0.0769145032531211,0.0738329587171893,0.));
#1308=CARTESIAN_POINT('',(-0.0798145032531211,0.0738329587171893,0.));
#1309=CARTESIAN_POINT('',(-0.0740145032531211,0.0738329587171893,0.));
#1310=CARTESIAN_POINT('',(-0.0740145032531211,0.0190408909053238,0.));
#1311=CARTESIAN_POINT('',(-0.0740145032531211,0.0778329587171893,0.));
#1312=CARTESIAN_POINT('',(-0.0769145032531211,0.0778329587171893,0.));
#1313=CARTESIAN_POINT('',(-0.0798145032531211,0.0778329587171893,0.));
#1314=CARTESIAN_POINT('',(-0.0798145032531211,0.0738329587171893,0.));
#1315=CARTESIAN_POINT('',(-0.0769145032531211,-0.0377511769065417,0.));
#1316=CARTESIAN_POINT('',(-0.0740145032531211,-0.0377511769065417,0.));
#1317=CARTESIAN_POINT('',(0.0771936323706099,0.0758329587171893,0.));
#1318=CARTESIAN_POINT('',(0.0800936323706099,0.0758329587171893,0.));
#1319=CARTESIAN_POINT('',(-0.0814855710649866,0.0190408909053238,0.));
#1320=CARTESIAN_POINT('',(-0.0814855710649866,0.0949040265290548,0.));
#1321=CARTESIAN_POINT('',(-0.0814855710649866,-0.0568222447184071,0.));
#1322=CARTESIAN_POINT('',(-0.0784855710649866,0.0949040265290548,0.));
#1323=CARTESIAN_POINT('',(-0.0784855710649866,0.0979040265290548,0.));
#1324=CARTESIAN_POINT('',(0.000139564558744448,0.0979040265290548,0.));
#1325=CARTESIAN_POINT('',(0.0787647001824754,0.0979040265290548,0.));
#1326=CARTESIAN_POINT('',(0.0787647001824754,0.0949040265290548,0.));
#1327=CARTESIAN_POINT('',(0.0817647001824754,0.0949040265290548,0.));
#1328=CARTESIAN_POINT('',(0.0817647001824754,0.0190408909053238,0.));
#1329=CARTESIAN_POINT('',(0.0817647001824754,-0.0568222447184071,0.));
#1330=CARTESIAN_POINT('',(0.0787647001824754,-0.0568222447184071,0.));
#1331=CARTESIAN_POINT('',(0.0787647001824754,-0.0598222447184071,0.));
#1332=CARTESIAN_POINT('',(0.000139564558744434,-0.0598222447184071,0.));
#1333=CARTESIAN_POINT('',(-0.0784855710649866,-0.0598222447184071,0.));
#1334=CARTESIAN_POINT('',(-0.0784855710649866,-0.0568222447184071,0.));
#1335=CARTESIAN_POINT('',(0.000139564558744434,0.0190408909053238,0.002));
#1336=CARTESIAN_POINT('',(-0.0754145032531211,0.0190408909053238,0.002));
#1337=CARTESIAN_POINT('',(-0.0754145032531211,0.0738329587171893,0.002));
#1338=CARTESIAN_POINT('',(-0.0754145032531211,0.0778329587171893,0.002));
#1339=CARTESIAN_POINT('',(-0.0769145032531211,0.0738329587171893,0.002));
#1340=CARTESIAN_POINT('',(-0.0784145032531211,0.0738329587171893,0.002));
#1341=CARTESIAN_POINT('',(-0.0784145032531211,0.0190408909053238,0.002));
#1342=CARTESIAN_POINT('',(-0.0784145032531211,0.0778329587171893,0.002));
#1343=CARTESIAN_POINT('',(-0.0769145032531211,0.0778329587171893,0.002));
#1344=CARTESIAN_POINT('',(0.000139564558744448,0.0979040265290548,0.002));
#1345=CARTESIAN_POINT('',(-0.0784855710649866,0.0979040265290548,0.002));
#1346=CARTESIAN_POINT('',(0.0787647001824754,0.0979040265290548,0.002));
#1347=CARTESIAN_POINT('',(-0.0784855710649866,0.0949040265290548,0.002));
#1348=CARTESIAN_POINT('',(-0.0814855710649866,0.0949040265290548,0.002));
#1349=CARTESIAN_POINT('',(-0.0814855710649866,0.0190408909053238,0.002));
#1350=CARTESIAN_POINT('',(-0.0814855710649866,-0.0568222447184071,0.002));
#1351=CARTESIAN_POINT('',(-0.0784855710649866,-0.0568222447184071,0.002));
#1352=CARTESIAN_POINT('',(-0.0784855710649866,-0.0598222447184071,0.002));
#1353=CARTESIAN_POINT('',(0.000139564558744434,-0.0598222447184071,0.002));
#1354=CARTESIAN_POINT('',(0.0787647001824754,-0.0598222447184071,0.002));
#1355=CARTESIAN_POINT('',(0.0787647001824754,-0.0568222447184071,0.002));
#1356=CARTESIAN_POINT('',(0.0817647001824754,-0.0568222447184071,0.002));
#1357=CARTESIAN_POINT('',(0.0817647001824754,0.0190408909053238,0.002));
#1358=CARTESIAN_POINT('',(0.0817647001824754,0.0949040265290548,0.002));
#1359=CARTESIAN_POINT('',(0.0787647001824754,0.0949040265290548,0.002));
#1360=CARTESIAN_POINT('',(-0.0609698739051819,0.0829657511115074,0.002));
#1361=CARTESIAN_POINT('',(-0.0595448739051819,0.0829657511115074,0.002));
#1362=CARTESIAN_POINT('',(-0.00296987390518188,0.0829657511115074,0.002));
#1363=CARTESIAN_POINT('',(-0.00154487390518188,0.0829657511115074,0.002));
#1364=CARTESIAN_POINT('',(-0.00308885369718075,0.060065992897749,0.002));
#1365=CARTESIAN_POINT('',(-0.00166385369718075,0.060065992897749,0.002));
#1366=CARTESIAN_POINT('',(-0.0609698739051819,0.0599657511115074,0.002));
#1367=CARTESIAN_POINT('',(-0.0595448739051819,0.0599657511115074,0.002));
#1368=CARTESIAN_POINT('',(-0.0673434354412556,-0.0456801090946762,0.002));
#1369=CARTESIAN_POINT('',(-0.0656684354412556,-0.0456801090946762,0.002));
#1370=CARTESIAN_POINT('',(-0.0673434354412556,0.0437618909053238,0.002));
#1371=CARTESIAN_POINT('',(-0.0656684354412556,0.0437618909053238,0.002));
#1372=CARTESIAN_POINT('',(0.0676225645587444,-0.0456801090946762,0.002));
#1373=CARTESIAN_POINT('',(0.0692975645587444,-0.0456801090946762,0.002));
#1374=CARTESIAN_POINT('',(0.0676225645587444,0.0437618909053239,0.002));
#1375=CARTESIAN_POINT('',(0.0692975645587444,0.0437618909053239,0.002));
#1376=CARTESIAN_POINT('',(0.0771936323706099,0.0758329587171893,0.002));
#1377=CARTESIAN_POINT('',(0.0786936323706099,0.0758329587171893,0.002));
#1378=CARTESIAN_POINT('',(-0.0769145032531211,-0.0377511769065417,0.002));
#1379=CARTESIAN_POINT('',(-0.0754145032531211,-0.0377511769065417,0.002));
#1380=CARTESIAN_POINT('',(0.0786938451298739,0.0190408909053238,0.002));
#1381=CARTESIAN_POINT('',(0.0786938451298739,-0.0397160491616029,0.002));
#1382=CARTESIAN_POINT('',(0.0786938451298739,-0.035716049161603,0.002));
#1383=CARTESIAN_POINT('',(0.0771938451298739,-0.0397160491616029,0.002));
#1384=CARTESIAN_POINT('',(0.0756938451298739,-0.0397160491616029,0.002));
#1385=CARTESIAN_POINT('',(0.0756938451298739,0.0190408909053238,0.002));
#1386=CARTESIAN_POINT('',(0.0756938451298739,-0.035716049161603,0.002));
#1387=CARTESIAN_POINT('',(0.0771938451298739,-0.035716049161603,0.002));
#1388=CARTESIAN_POINT('',(-0.0673434354412556,0.0437618909053238,0.005));
#1389=CARTESIAN_POINT('',(-0.0673434354412556,0.0437618909053238,0.007));
#1390=CARTESIAN_POINT('',(-0.0656684354412556,0.0437618909053238,0.007));
#1391=CARTESIAN_POINT('',(0.0676225645587444,0.0437618909053238,0.005));
#1392=CARTESIAN_POINT('',(0.0676225645587444,0.0437618909053238,0.007));
#1393=CARTESIAN_POINT('',(0.0692975645587444,0.0437618909053238,0.007));
#1394=CARTESIAN_POINT('',(0.0676225645587444,-0.0456801090946762,0.005));
#1395=CARTESIAN_POINT('',(0.0676225645587444,-0.0456801090946762,0.007));
#1396=CARTESIAN_POINT('',(0.0692975645587444,-0.0456801090946762,0.007));
#1397=CARTESIAN_POINT('',(-0.00296987390518188,0.0829657511115074,0.005));
#1398=CARTESIAN_POINT('',(-0.00296987390518188,0.0829657511115074,0.007));
#1399=CARTESIAN_POINT('',(-0.00154487390518188,0.0829657511115074,0.007));
#1400=CARTESIAN_POINT('',(-0.00308885369718075,0.060065992897749,0.005));
#1401=CARTESIAN_POINT('',(-0.00308885369718075,0.060065992897749,0.007));
#1402=CARTESIAN_POINT('',(-0.00166385369718075,0.060065992897749,0.007));
#1403=CARTESIAN_POINT('',(-0.0609698739051819,0.0599657511115074,0.005));
#1404=CARTESIAN_POINT('',(-0.0609698739051819,0.0599657511115074,0.007));
#1405=CARTESIAN_POINT('',(-0.0595448739051819,0.0599657511115074,0.007));
#1406=CARTESIAN_POINT('',(0.000139564558744448,0.0979040265290548,0.002));
#1407=CARTESIAN_POINT('',(-0.0784855710649866,0.0979040265290548,0.002));
#1408=CARTESIAN_POINT('',(0.0787647001824754,0.0979040265290548,0.002));
#1409=CARTESIAN_POINT('',(-0.0814855710649866,0.0190408909053238,0.002));
#1410=CARTESIAN_POINT('',(-0.0814855710649866,0.0949040265290548,0.));
#1411=CARTESIAN_POINT('',(-0.0814855710649866,-0.0568222447184071,0.002));
#1412=CARTESIAN_POINT('',(0.000139564558744434,-0.0598222447184071,0.002));
#1413=CARTESIAN_POINT('',(0.0787647001824754,-0.0598222447184071,0.002));
#1414=CARTESIAN_POINT('',(-0.0784855710649866,-0.0598222447184071,0.002));
#1415=CARTESIAN_POINT('',(0.0817647001824754,0.0190408909053238,0.002));
#1416=CARTESIAN_POINT('',(0.0817647001824754,0.0949040265290548,0.002));
#1417=CARTESIAN_POINT('',(0.0817647001824754,-0.0568222447184071,0.));
#1418=CARTESIAN_POINT('',(-0.0609698739051819,0.0829657511115074,0.005));
#1419=CARTESIAN_POINT('',(-0.0609698739051819,0.0829657511115074,0.007));
#1420=CARTESIAN_POINT('',(-0.0595448739051819,0.0829657511115074,0.007));
#1421=CARTESIAN_POINT('',(-0.0673434354412556,-0.0456801090946762,0.005));
#1422=CARTESIAN_POINT('',(-0.0673434354412556,-0.0456801090946762,0.007));
#1423=CARTESIAN_POINT('',(-0.0656684354412556,-0.0456801090946762,0.007));
#1424=CARTESIAN_POINT('',(0.0771936323706099,0.0758329587171893,0.));
#1425=CARTESIAN_POINT('',(0.0771936323706099,0.0758329587171893,0.0014));
#1426=CARTESIAN_POINT('',(0.0786936323706099,0.0758329587171893,0.0014));
#1427=CARTESIAN_POINT('',(0.0771936323706099,0.0758329587171893,0.));
#1428=CARTESIAN_POINT('',(-0.0769145032531211,-0.0377511769065417,0.));
#1429=CARTESIAN_POINT('',(-0.0769145032531211,-0.0377511769065417,0.0014));
#1430=CARTESIAN_POINT('',(-0.0754145032531211,-0.0377511769065417,0.0014));
#1431=CARTESIAN_POINT('',(-0.0769145032531211,-0.0377511769065417,0.));
#1432=CARTESIAN_POINT('',(-0.0784855710649866,0.0949040265290548,0.002));
#1433=CARTESIAN_POINT('',(0.0787647001824754,0.0949040265290548,0.002));
#1434=CARTESIAN_POINT('',(0.0787647001824754,-0.0568222447184071,0.002));
#1435=CARTESIAN_POINT('',(-0.0784855710649866,-0.0568222447184071,0.002));
#1436=CARTESIAN_POINT('',(0.000139564558744434,0.0190408909053238,0.007));
#1437=CARTESIAN_POINT('',(-0.0673434354412556,-0.0456801090946762,0.007));
#1438=CARTESIAN_POINT('',(-0.0662434354412556,-0.0456801090946762,0.007));
#1439=CARTESIAN_POINT('',(0.000139564558744434,0.0190408909053238,0.007));
#1440=CARTESIAN_POINT('',(-0.0609698739051819,0.0829657511115074,0.007));
#1441=CARTESIAN_POINT('',(-0.0599698739051819,0.0829657511115074,0.007));
#1442=CARTESIAN_POINT('',(0.000139564558744434,0.0190408909053238,0.001));
#1443=CARTESIAN_POINT('',(-0.0609698739051819,0.0829657511115074,0.001));
#1444=CARTESIAN_POINT('',(-0.0599698739051819,0.0829657511115074,0.001));
#1445=CARTESIAN_POINT('',(-0.0609698739051819,0.0829657511115074,0.005));
#1446=CARTESIAN_POINT('',(0.000139564558744434,0.0190408909053238,0.007));
#1447=CARTESIAN_POINT('',(-0.0609698739051819,0.0599657511115074,0.007));
#1448=CARTESIAN_POINT('',(-0.0599698739051819,0.0599657511115074,0.007));
#1449=CARTESIAN_POINT('',(0.000139564558744434,0.0190408909053238,0.001));
#1450=CARTESIAN_POINT('',(-0.0609698739051819,0.0599657511115074,0.001));
#1451=CARTESIAN_POINT('',(-0.0599698739051819,0.0599657511115074,0.001));
#1452=CARTESIAN_POINT('',(-0.0609698739051819,0.0599657511115074,0.005));
#1453=CARTESIAN_POINT('',(0.000139564558744434,0.0190408909053238,0.007));
#1454=CARTESIAN_POINT('',(-0.00308885369718075,0.060065992897749,0.007));
#1455=CARTESIAN_POINT('',(-0.00208885369718075,0.060065992897749,0.007));
#1456=CARTESIAN_POINT('',(0.000139564558744434,0.0190408909053238,0.001));
#1457=CARTESIAN_POINT('',(-0.00308885369718075,0.060065992897749,0.001));
#1458=CARTESIAN_POINT('',(-0.00208885369718075,0.060065992897749,0.001));
#1459=CARTESIAN_POINT('',(-0.00308885369718075,0.060065992897749,0.005));
#1460=CARTESIAN_POINT('',(0.000139564558744434,0.0190408909053238,0.007));
#1461=CARTESIAN_POINT('',(-0.00296987390518188,0.0829657511115074,0.007));
#1462=CARTESIAN_POINT('',(-0.00196987390518188,0.0829657511115074,0.007));
#1463=CARTESIAN_POINT('',(0.000139564558744434,0.0190408909053238,0.001));
#1464=CARTESIAN_POINT('',(-0.00296987390518188,0.0829657511115074,0.001));
#1465=CARTESIAN_POINT('',(-0.00196987390518188,0.0829657511115074,0.001));
#1466=CARTESIAN_POINT('',(-0.00296987390518188,0.0829657511115074,0.005));
#1467=CARTESIAN_POINT('',(0.000139564558744434,0.0190408909053238,0.007));
#1468=CARTESIAN_POINT('',(0.0676225645587444,-0.0456801090946762,0.007));
#1469=CARTESIAN_POINT('',(0.0687225645587444,-0.0456801090946762,0.007));
#1470=CARTESIAN_POINT('',(0.000139564558744434,0.0190408909053238,0.007));
#1471=CARTESIAN_POINT('',(0.0676225645587444,0.0437618909053238,0.007));
#1472=CARTESIAN_POINT('',(0.0687225645587444,0.0437618909053238,0.007));
#1473=CARTESIAN_POINT('',(0.000139564558744434,0.0190408909053238,0.001));
#1474=CARTESIAN_POINT('',(0.0676225645587444,0.0437618909053238,0.001));
#1475=CARTESIAN_POINT('',(0.0687225645587444,0.0437618909053238,0.001));
#1476=CARTESIAN_POINT('',(0.0676225645587444,0.0437618909053238,0.005));
#1477=CARTESIAN_POINT('',(0.000139564558744434,0.0190408909053238,0.007));
#1478=CARTESIAN_POINT('',(-0.0673434354412556,0.0437618909053238,0.007));
#1479=CARTESIAN_POINT('',(-0.0662434354412556,0.0437618909053238,0.007));
#1480=CARTESIAN_POINT('',(0.000139564558744434,0.0190408909053238,0.001));
#1481=CARTESIAN_POINT('',(-0.0673434354412556,0.0437618909053238,0.001));
#1482=CARTESIAN_POINT('',(-0.0662434354412556,0.0437618909053238,0.001));
#1483=CARTESIAN_POINT('',(-0.0673434354412556,0.0437618909053238,0.005));
#1484=CARTESIAN_POINT('',(0.000139564558744434,0.0190408909053238,0.001));
#1485=CARTESIAN_POINT('',(-0.0673434354412556,-0.0456801090946762,0.001));
#1486=CARTESIAN_POINT('',(-0.0662434354412556,-0.0456801090946762,0.001));
#1487=CARTESIAN_POINT('',(-0.0673434354412556,-0.0456801090946762,0.005));
#1488=CARTESIAN_POINT('',(0.000139564558744434,0.0190408909053238,0.001));
#1489=CARTESIAN_POINT('',(0.0676225645587444,-0.0456801090946762,0.001));
#1490=CARTESIAN_POINT('',(0.0687225645587444,-0.0456801090946762,0.001));
#1491=CARTESIAN_POINT('',(0.0676225645587444,-0.0456801090946762,0.005));
#1492=CARTESIAN_POINT('',(0.0786938451298739,-0.036957016526202,0.019));
#1493=CARTESIAN_POINT('',(0.0786938451298739,-0.035716049161603,0.019));
#1494=CARTESIAN_POINT('',(0.0786938451298739,-0.035716049161603,0.0014));
#1495=CARTESIAN_POINT('',(0.0786938451298739,-0.036957016526202,0.0014));
#1496=CARTESIAN_POINT('',(0.0786938451298739,-0.0397160491616029,0.0014));
#1497=CARTESIAN_POINT('',(0.0786938451298739,-0.0397160491616029,0.019));
#1498=CARTESIAN_POINT('',(0.0771938451298739,-0.035716049161603,0.019));
#1499=CARTESIAN_POINT('',(0.0756938451298739,-0.035716049161603,0.019));
#1500=CARTESIAN_POINT('',(0.0756938451298739,-0.035716049161603,0.0014));
#1501=CARTESIAN_POINT('',(0.0771938451298739,-0.035716049161603,0.0014));
#1502=CARTESIAN_POINT('',(0.0756938451298739,-0.036957016526202,0.019));
#1503=CARTESIAN_POINT('',(0.0756938451298739,-0.0397160491616029,0.019));
#1504=CARTESIAN_POINT('',(0.0756938451298739,-0.0397160491616029,0.0014));
#1505=CARTESIAN_POINT('',(0.0756938451298739,-0.035716049161603,0.0014));
#1506=CARTESIAN_POINT('',(0.0771938451298739,-0.0397160491616029,0.019));
#1507=CARTESIAN_POINT('',(0.0771938451298739,-0.0397160491616029,0.0014));
#1508=CARTESIAN_POINT('',(-0.0769145032531211,0.0738329587171893,0.019));
#1509=CARTESIAN_POINT('',(-0.0754145032531211,0.0738329587171893,0.019));
#1510=CARTESIAN_POINT('',(-0.0754145032531211,0.0738329587171893,0.0014));
#1511=CARTESIAN_POINT('',(-0.0769145032531211,0.0738329587171893,0.0014));
#1512=CARTESIAN_POINT('',(-0.0784145032531211,0.0738329587171893,0.0014));
#1513=CARTESIAN_POINT('',(-0.0784145032531211,0.0738329587171893,0.019));
#1514=CARTESIAN_POINT('',(-0.0754145032531211,0.0765919913525902,0.019));
#1515=CARTESIAN_POINT('',(-0.0754145032531211,0.0778329587171893,0.019));
#1516=CARTESIAN_POINT('',(-0.0754145032531211,0.0778329587171893,0.0014));
#1517=CARTESIAN_POINT('',(-0.0754145032531211,0.0765919913525902,0.0014));
#1518=CARTESIAN_POINT('',(-0.0769145032531211,0.0778329587171893,0.019));
#1519=CARTESIAN_POINT('',(-0.0784145032531211,0.0778329587171893,0.019));
#1520=CARTESIAN_POINT('',(-0.0784145032531211,0.0778329587171893,0.0014));
#1521=CARTESIAN_POINT('',(-0.0769145032531211,0.0778329587171893,0.0014));
#1522=CARTESIAN_POINT('',(-0.0784145032531211,0.0765919913525902,0.019));
#1523=CARTESIAN_POINT('',(-0.0784145032531211,0.0778329587171893,0.0014));
#1524=CARTESIAN_POINT('',(0.0742938451298739,0.0190408909053238,0.));
#1525=CARTESIAN_POINT('',(0.0742938451298739,-0.0397160491616029,0.));
#1526=CARTESIAN_POINT('',(0.0756938451298739,-0.035716049161603,0.0014));
#1527=CARTESIAN_POINT('',(0.0771938451298739,-0.035716049161603,0.));
#1528=CARTESIAN_POINT('',(0.0786938451298739,-0.035716049161603,0.0014));
#1529=CARTESIAN_POINT('',(0.0771938451298739,-0.0397160491616029,0.));
#1530=CARTESIAN_POINT('',(0.0800938451298739,-0.0397160491616029,0.));
#1531=CARTESIAN_POINT('',(0.0786938451298739,-0.036957016526202,0.0014));
#1532=CARTESIAN_POINT('',(-0.0798145032531211,0.0190408909053238,0.));
#1533=CARTESIAN_POINT('',(-0.0798145032531211,0.0738329587171893,0.));
#1534=CARTESIAN_POINT('',(-0.0784145032531211,0.0778329587171893,0.0014));
#1535=CARTESIAN_POINT('',(-0.0769145032531211,0.0778329587171893,0.));
#1536=CARTESIAN_POINT('',(-0.0754145032531211,0.0778329587171893,0.0014));
#1537=CARTESIAN_POINT('',(-0.0769145032531211,0.0738329587171893,0.));
#1538=CARTESIAN_POINT('',(-0.0740145032531211,0.0738329587171893,0.));
#1539=CARTESIAN_POINT('',(-0.0754145032531211,0.0765919913525902,0.0014));
#1540=MECHANICAL_DESIGN_GEOMETRIC_PRESENTATION_REPRESENTATION('',(#879),
#1541);
#1541=(
GEOMETRIC_REPRESENTATION_CONTEXT(3)
GLOBAL_UNCERTAINTY_ASSIGNED_CONTEXT((#1542))
GLOBAL_UNIT_ASSIGNED_CONTEXT((#1545,#1544,#1543))
REPRESENTATION_CONTEXT('Part 1','TOP_LEVEL_ASSEMBLY_PART')
);
#1542=UNCERTAINTY_MEASURE_WITH_UNIT(LENGTH_MEASURE(1.E-8),#1545,
'DISTANCE_ACCURACY_VALUE','Maximum Tolerance applied to model');
#1543=(
NAMED_UNIT(*)
SI_UNIT($,.STERADIAN.)
SOLID_ANGLE_UNIT()
);
#1544=(
NAMED_UNIT(*)
PLANE_ANGLE_UNIT()
SI_UNIT($,.RADIAN.)
);
#1545=(
LENGTH_UNIT()
NAMED_UNIT(*)
SI_UNIT($,.METRE.)
);
#1546=PRODUCT_DEFINITION_SHAPE('','',#1547);
#1547=PRODUCT_DEFINITION('','',#1549,#1548);
#1548=PRODUCT_DEFINITION_CONTEXT('',#1555,'design');
#1549=PRODUCT_DEFINITION_FORMATION_WITH_SPECIFIED_SOURCE('','',#1551,
 .NOT_KNOWN.);
#1550=PRODUCT_RELATED_PRODUCT_CATEGORY('','',(#1551));
#1551=PRODUCT('Part 1','Part 1','Part 1',(#1553));
#1552=PRODUCT_CATEGORY('','');
#1553=PRODUCT_CONTEXT('',#1555,'mechanical');
#1554=APPLICATION_PROTOCOL_DEFINITION('international standard',
'ap242_managed_model_based_3d_engineering',2020,#1555);
#1555=APPLICATION_CONTEXT('managed model based 3d engineering');
ENDSEC;
END-ISO-10303-21;
